<svg class="icon" viewBox="0 0 1024 1024" xmlns="http://www.w3.org/2000/svg" xmlns:xlink="http://www.w3.org/1999/xlink" id="icon-bell"><defs><style type="text/css"></style></defs><path class="nav_icon_warning" d="M281.6 956.509091c-13.963636 0-27.927273-4.654545-41.890909-13.963636-23.272727-18.618182-32.581818-46.545455-25.6-74.472728l16.290909-58.181818H100.072727c-55.854545 0-100.072727-44.218182-100.072727-100.072727V169.890909C0 114.036364 44.218182 69.818182 100.072727 69.818182h823.854546C979.781818 69.818182 1024 114.036364 1024 169.890909v539.927273c0 55.854545-44.218182 100.072727-100.072727 100.072727H530.618182l-209.454546 134.981818c-11.636364 6.981818-25.6 11.636364-39.563636 11.636364zM100.072727 114.036364C69.818182 114.036364 46.545455 139.636364 46.545455 169.890909v539.927273c0 30.254545 23.272727 53.527273 53.527272 53.527273h195.490909l-34.909091 116.363636c-4.654545 13.963636 4.654545 23.272727 6.981819 23.272727 2.327273 2.327273 13.963636 9.309091 25.6 0l221.090909-141.963636h407.272727c30.254545 0 53.527273-23.272727 53.527273-53.527273V169.890909c0-30.254545-23.272727-53.527273-53.527273-53.527273H100.072727z" p-id="3906"></path><path class="nav_icon_warning" d="M833.163636 288.581818H190.836364c-13.963636 0-23.272727-9.309091-23.272728-23.272727s9.309091-23.272727 23.272728-23.272727h642.327272c13.963636 0 23.272727 9.309091 23.272728 23.272727s-9.309091 23.272727-23.272728 23.272727zM653.963636 442.181818H190.836364c-13.963636 0-23.272727-9.309091-23.272728-23.272727s9.309091-23.272727 23.272728-23.272727h463.127272c13.963636 0 23.272727 9.309091 23.272728 23.272727s-11.636364 23.272727-23.272728 23.272727zM525.963636 598.109091H190.836364c-13.963636 0-23.272727-9.309091-23.272728-23.272727s9.309091-23.272727 23.272728-23.272728h335.127272c13.963636 0 23.272727 9.309091 23.272728 23.272728s-11.636364 23.272727-23.272728 23.272727z" p-id="3907"></path></svg>