<svg width="95.8" height="95.8" xmlns="http://www.w3.org/2000/svg"><style type="text/css">#icon-cloud .cloudColor0{fill:none;stroke-width:2.5;stroke-miterlimit:10;}
    #icon-cloud .cloudColor1{stroke:#00A651;}
    #icon-cloud .cloudColor2{fill:#00A651;}</style><g><title>background</title><rect fill="none" id="canvas_background" height="402" width="582" y="-1" x="-1"/></g><g><title>Layer 1</title><polygon stroke-width="2.5" fill="#000000" fill-opacity="0" id="svg_2" stroke=" #dcca35" points="75.9,10.7 60.9,10.7 53.3,23.9 60.9,37.1 75.9,37.1 83.6,23.9 " class="cloudColor0 cloudColor1"/><line stroke-width="2.5" id="svg_3" stroke=" #dcca35" y2="47.9" x2="54.8" y1="71.8" x1="41" class="cloudColor0 cloudColor1"/><polygon stroke-width="2.5" fill="none" id="svg_4" stroke=" #dcca35" points="34.73606714606285,34.37213200330734 19.736065238714218,34.37213200330734 12.136065810918808,47.572132766246796 19.736065238714218,60.87213200330734 34.73606714606285,60.87213200330734 42.43606409430504,47.572132766246796 " class="cloudColor0 cloudColor1"/><g id="svg_5"><path id="svg_6" fill=" #dcca35" d="m80.6,2.5l12.4,21.4l-13.2,22.8l-0.7,1.3l0.7,1.3l13.2,22.6l-12.4,21.4l-24.3,0l-13.1,-22.7l-0.7,-1.2l-1.5,0l-25.7,0l-12.4,-21.5l12.4,-21.4l25.7,0l2.5,0l0,-1.8l12.8,-22.2l24.3,0m1.4,-2.5l-27.2,0l-13.8,24l0,0l-27.2,0l-13.8,23.9l13.8,23.9l27.2,0l13.9,24l27.2,0l13.8,-23.9l-13.9,-24l13.9,-24l-13.9,-23.9l0,0z" class="cloudColor2"/></g><polygon stroke-width="2.5" fill="#000000" fill-opacity="0" id="svg_7" stroke=" #dcca35" points="76,58.7 60.9,58.7 53.3,71.9 60.9,85.1 76,85.1 83.6,71.9 " class="cloudColor0 cloudColor1"/><path id="svg_15" d="m42.7819,25.24007c0,0 12.12598,23.30708 12.02124,23.26386c0.10474,0.04322 25.61655,-0.42922 25.5118,-0.47244" fill-opacity="null" stroke-opacity="null" stroke-width="2.5" stroke=" #dcca35" fill="none"/></g></svg>