<svg xmlns="http://www.w3.org/2000/svg" fill-rule="evenodd" viewBox="0 0 1000 1000" xmlns:xlink="http://www.w3.org/1999/xlink" xmlns:xodm="http://www.corel.com/coreldraw/odm/2003" id="icon-dashboard"><g id="icon-dashboard_Layer_x0020_1"><metadata id="icon-dashboard_CorelCorpID_0Corel-Layer"></metadata><g id="icon-dashboard_dashboard.svg"><g><g><g><path class="icon_hover" fill-rule="nonzero" d="M715.41 421.85l-243.9 214.44c-0.33,0.28 -0.65,0.57 -0.94,0.87 -7.89,7.85 -12.25,18.33 -12.25,29.5 0,22.97 18.68,41.67 41.67,41.67 11.07,0 21.52,-4.31 30.4,-13.19l214.44 -243.9c7.24,-8.24 6.83,-20.71 -0.94,-28.48 -7.77,-7.74 -20.18,-8.15 -28.48,-0.91z"></path><path class="icon_hover" fill-rule="nonzero" d="M500 166.67c-275.72,0 -500,224.3 -500,500 0,51.72 8.02,102.91 23.76,152.18 2.77,8.63 10.78,14.49 19.86,14.49l912.76 0c9.07,0 17.09,-5.86 19.86,-14.49 15.74,-49.28 23.76,-100.46 23.76,-152.18 0,-275.69 -224.28,-500 -500,-500zm395.83 520.83l61.06 0c-1.61,35.24 -6.32,70.21 -15.97,104.17l-881.83 0c-9.65,-33.96 -14.36,-68.93 -15.97,-104.17l61.06 0c11.52,0 20.83,-9.32 20.83,-20.83 0,-11.52 -9.32,-20.83 -20.83,-20.83l-61.44 0c3.09,-68.2 20.86,-132.55 50.68,-189.86l53.37 30.82c3.3,1.89 6.88,2.79 10.42,2.79 7.16,0 14.2,-3.72 18.02,-10.42 5.78,-9.97 2.36,-22.7 -7.61,-28.46l-53.25 -30.75c35.79,-55.74 83.21,-103.16 138.95,-138.94l30.75 53.28c3.82,6.67 10.87,10.42 18.02,10.42 3.54,0 7.12,-0.89 10.42,-2.79 9.97,-5.76 13.39,-18.5 7.61,-28.46l-30.81 -53.38c57.31,-29.82 121.67,-47.6 189.87,-50.69l0 61.44c0,11.52 9.32,20.83 20.83,20.83 11.52,0 20.83,-9.32 20.83,-20.83l0 -61.44c68.21,3.09 132.56,20.86 189.87,50.69l-30.81 53.38c-5.78,9.97 -2.36,22.7 7.61,28.46 3.3,1.89 6.88,2.79 10.42,2.79 7.16,0 14.2,-3.74 18.02,-10.42l30.75 -53.28c55.74,35.78 103.16,83.2 138.95,138.94l-53.25 30.75c-9.97,5.76 -13.39,18.5 -7.61,28.46 3.82,6.69 10.87,10.42 18.02,10.42 3.54,0 7.12,-0.89 10.42,-2.79l53.37 -30.82c29.82,57.31 47.59,121.66 50.68,189.86l-61.44 0c-11.52,0 -20.83,9.32 -20.83,20.83 0,11.52 9.32,20.83 20.84,20.83z"></path></g></g></g></g></g></svg>
