<svg xmlns="http://www.w3.org/2000/svg" fill-rule="evenodd" viewBox="0 0 1000 1000" xmlns:xlink="http://www.w3.org/1999/xlink" xmlns:xodm="http://www.corel.com/coreldraw/odm/2003" id="icon-network"><g id="icon-network_Layer_x0020_1"><metadata id="icon-network_CorelCorpID_0Corel-Layer"></metadata><g id="icon-network_network2.svg"><g><g><path class="icon_hover" fill-rule="nonzero" d="M650 0l-300 0c-27.57,0 -50,22.43 -50,50l0 200c0,27.57 22.43,50 50,50l300 0c27.57,0 50,-22.43 50,-50l0 -200c0,-27.57 -22.43,-50 -50,-50zm16.67 250c0,9.19 -7.47,16.67 -16.67,16.67l-300 0c-9.19,0 -16.67,-7.48 -16.67,-16.67l0 -200c0,-9.19 7.48,-16.67 16.67,-16.67l300 0c9.2,0 16.67,7.48 16.67,16.67l0 200z"></path></g></g><g><g><path class="icon_hover" fill-rule="nonzero" d="M566.33 363.4l-16.67 -83.33c-1.55,-7.8 -8.38,-13.4 -16.33,-13.4l-66.67 0c-7.95,0 -14.78,5.6 -16.33,13.4l-16.67 83.33c-0.98,4.9 0.28,9.98 3.45,13.83 3.17,3.87 7.88,6.1 12.88,6.1l100 0c5,0 9.72,-2.23 12.88,-6.1 3.15,-3.85 4.43,-8.94 3.45,-13.83zm-96 -13.4l10 -50 39.35 0 10 50 -59.35 0z"></path></g></g><g><g><rect class="icon_hover" fill-rule="nonzero" x="416.67" y="350" width="166.67" height="33.33"></rect></g></g><g><g><rect class="icon_hover" fill-rule="nonzero" x="316.67" y="200" width="366.67" height="33.33"></rect></g></g><g><g><path class="icon_hover" fill-rule="nonzero" d="M350 616.67l-300 0c-27.57,0 -50,22.43 -50,50l0 200c0,27.57 22.43,50 50,50l300 0c27.57,0 50,-22.43 50,-50l0 -200c0,-27.57 -22.43,-50 -50,-50zm16.67 250c0,9.2 -7.48,16.67 -16.67,16.67l-300 0c-9.19,0 -16.67,-7.47 -16.67,-16.67l0 -200c0,-9.2 7.48,-16.67 16.67,-16.67l300 0c9.19,0 16.67,7.47 16.67,16.67l0 200z"></path></g></g><g><g><path class="icon_hover" fill-rule="nonzero" d="M266.33 980.07l-16.67 -83.33c-1.55,-7.78 -8.38,-13.4 -16.33,-13.4l-66.67 0c-7.95,0 -14.78,5.62 -16.33,13.4l-16.67 83.33c-0.98,4.9 0.28,9.98 3.45,13.83 3.17,3.85 7.89,6.1 12.89,6.1l100 0c5,0 9.72,-2.25 12.88,-6.1 3.17,-3.85 4.43,-8.93 3.45,-13.83zm-96 -13.4l10.02 -50 39.33 0 10 50 -59.35 0z"></path></g></g><g><g><rect class="icon_hover" fill-rule="nonzero" x="116.67" y="966.67" width="166.67" height="33.33"></rect></g></g><g><g><rect class="icon_hover" fill-rule="nonzero" x="16.67" y="816.67" width="366.67" height="33.33"></rect></g></g><g><g><path class="icon_hover" fill-rule="nonzero" d="M950 616.67l-300 0c-27.57,0 -50,22.43 -50,50l0 200c0,27.57 22.43,50 50,50l300 0c27.57,0 50,-22.43 50,-50l0 -200c0,-27.57 -22.43,-50 -50,-50zm16.67 250c0,9.2 -7.47,16.67 -16.67,16.67l-300 0c-9.2,0 -16.67,-7.47 -16.67,-16.67l0 -200c0,-9.2 7.47,-16.67 16.67,-16.67l300 0c9.2,0 16.67,7.47 16.67,16.67l0 200z"></path></g></g><g><g><path class="icon_hover" fill-rule="nonzero" d="M866.33 980.07l-16.67 -83.33c-1.55,-7.78 -8.38,-13.4 -16.33,-13.4l-66.67 0c-7.95,0 -14.78,5.62 -16.33,13.4l-16.67 83.33c-0.98,4.9 0.3,9.98 3.45,13.83 3.17,3.85 7.88,6.1 12.88,6.1l100 0c5,0 9.72,-2.25 12.88,-6.1 3.15,-3.85 4.43,-8.93 3.45,-13.83zm-96 -13.4l10 -50 39.35 0 10 50 -59.35 0z"></path></g></g><g><g><rect class="icon_hover" fill-rule="nonzero" x="716.67" y="966.67" width="166.67" height="33.33"></rect></g></g><g><g><rect class="icon_hover" fill-rule="nonzero" x="616.67" y="816.67" width="366.67" height="33.33"></rect></g></g><g><g><path class="icon_hover" fill-rule="nonzero" d="M800 483.33l-600 0c-9.2,0 -16.67,7.47 -16.67,16.67l0 66.67 33.33 0 0 -50 566.67 0 0 66.67 33.33 0 0 -83.33c-0,-9.2 -7.45,-16.67 -16.67,-16.67z"></path></g></g><g><g><rect class="icon_hover" fill-rule="nonzero" x="483.33" y="416.67" width="33.33" height="83.33"></rect></g></g></g></g></svg>