<svg xmlns="http://www.w3.org/2000/svg" fill-rule="evenodd" viewBox="0 0 1000 1000" xmlns:xlink="http://www.w3.org/1999/xlink" xmlns:xodm="http://www.corel.com/coreldraw/odm/2003" id="icon-PoE"><g id="icon-PoE_Layer_x0020_1"><metadata id="icon-PoE_CorelCorpID_0Corel-Layer"></metadata><rect fill="none" stroke="#9CA9C4" stroke-width="31.65" stroke-miterlimit="2.61313" x="15.11" y="14.71" width="970.67" height="970.67"></rect><g id="icon-PoE__1844828689120"><g><path fill-rule="nonzero" d="M92.4 137.78l-15.83 -13.77 15.83 -13.77 461.3 0 0 27.54 -461.3 0zm-15.83 -13.77l0 -13.77 15.83 0 -15.83 13.77zm31.65 574.68l-15.83 13.77 -15.83 -13.77 0 -574.68 31.65 0 0 574.68zm-15.83 13.77l-15.83 0 0 -13.77 15.83 13.77zm116.97 -27.54l15.83 13.77 -15.83 13.77 -116.97 0 0 -27.54 116.97 0zm0 0l15.83 0 0 13.77 -15.83 -13.77zm15.83 115.06l-15.83 13.77 -15.83 -13.77 0 -101.29 31.65 0 0 101.29zm-15.83 13.77l-15.83 0 0 -13.77 15.83 13.77zm98.5 -27.54l15.83 13.77 -15.83 13.77 -98.5 0 0 -27.54 98.5 0zm0 0l15.83 0 0 13.77 -15.83 -13.77zm15.83 99.47l-15.83 13.77 -15.83 -13.77 0 -85.7 31.65 0 0 85.7zm-15.83 13.77l-15.83 0 0 -13.77 15.83 13.77zm246.05 -27.54l0 27.54 -246.05 0 0 -27.54 246.05 0z"></path></g><g><path fill-rule="nonzero" d="M908.5 137.78l-461.3 0 0 -27.54 461.3 0 15.83 13.77 -15.83 13.77zm0 -27.54l15.83 0 0 13.77 -15.83 -13.77zm-15.83 588.45l0 -574.68 31.65 0 0 574.68 -15.83 13.77 -15.83 -13.77zm31.65 0l0 13.77 -15.83 0 15.83 -13.77zm-132.8 -13.77l116.97 0 0 27.54 -116.97 0 -15.83 -13.77 15.83 -13.77zm-15.83 13.77l0 -13.77 15.83 0 -15.83 13.77zm0 101.29l0 -101.29 31.65 0 0 101.29 -15.83 13.77 -15.83 -13.77zm31.65 0l0 13.77 -15.83 0 15.83 -13.77zm-114.33 -13.77l98.5 0 0 27.54 -98.5 0 -15.83 -13.77 15.83 -13.77zm-15.83 13.77l0 -13.77 15.83 0 -15.83 13.77zm0 85.7l0 -85.7 31.65 0 0 85.7 -15.83 13.77 -15.83 -13.77zm31.65 0l0 13.77 -15.83 0 15.83 -13.77zm-261.87 -13.77l246.04 0 0 27.54 -246.04 0 0 -27.54z"></path></g></g><g><path fill-rule="nonzero" d="M594.5 539.41c-4.81,-3.97 -11.93,-3.28 -15.9,1.53l-162.36 197.16 62.89 -165.99c1.31,-3.47 0.85,-7.36 -1.27,-10.42 -2.11,-3.06 -5.58,-4.88 -9.3,-4.88l-67.53 0 77.93 -148.59c1.84,-3.5 1.71,-7.71 -0.34,-11.09 -2.04,-3.38 -5.71,-5.45 -9.66,-5.45l-112.82 0 130.87 -254.7 130.72 0c6.24,0 11.29,-5.05 11.29,-11.29 0,-6.24 -5.06,-11.3 -11.29,-11.3l-134.09 0c-6.43,0 -12.24,3.55 -15.18,9.26l-136.55 265.76c-2.7,5.25 -2.47,11.64 0.61,16.69 3.08,5.04 8.66,8.17 14.56,8.17l103.2 0 -73.51 140.14c-2.76,5.26 -2.56,11.68 0.51,16.76 3.08,5.08 8.66,8.23 14.6,8.23l60.32 0 -68.91 181.9c-3.07,7.84 -0.05,16.64 7.22,20.91 2.62,1.55 5.62,2.37 8.66,2.37 5.1,0 9.89,-2.24 13.15,-6.19l183.71 -223.09c3.97,-4.81 3.27,-11.94 -1.54,-15.89z"></path><path fill-rule="nonzero" d="M681.93 270.59c-2.99,-5.47 -8.72,-8.87 -14.95,-8.87l-71.26 0 70.96 -121.67c3.07,-5.26 3.09,-11.81 0.06,-17.09 -3.04,-5.28 -8.7,-8.56 -14.8,-8.56l-42.99 0c-6.24,0 -11.3,5.06 -11.3,11.3 0,6.24 5.06,11.29 11.3,11.29l33.37 0 -76.02 130.35c-2.04,3.49 -2.05,7.81 -0.04,11.31 2.01,3.51 5.75,5.67 9.79,5.67l80.82 -0 -111.09 173.97c-2.22,3.48 -2.37,7.89 -0.39,11.5 1.99,3.62 5.79,5.87 9.91,5.87l77.07 -0 -54.18 65.78c-3.96,4.81 -3.28,11.94 1.54,15.91 2.1,1.73 4.65,2.57 7.17,2.57 3.26,0 6.49,-1.41 8.73,-4.11l61.58 -74.78c4.2,-5.06 5.12,-12.19 2.32,-18.15 -2.8,-5.97 -8.86,-9.82 -15.44,-9.82l-68.17 0 105.42 -165.1c3.35,-5.25 3.58,-11.9 0.58,-17.38z"></path></g></g></svg>