<svg xmlns="http://www.w3.org/2000/svg" fill-rule="evenodd" viewBox="0 0 1000 1000" xmlns:xlink="http://www.w3.org/1999/xlink" xmlns:xodm="http://www.corel.com/coreldraw/odm/2003" id="icon-QoS"><g id="icon-QoS_Layer_x0020_1"><metadata id="icon-QoS_CorelCorpID_0Corel-Layer"></metadata><path id="icon-QoS_turn2.svg" class="icon_hover" fill-rule="nonzero" d="M767.46 665.67l-183.88 0 0 -284.18c0,-9.23 7.48,-16.72 16.71,-16.72l167.17 0 0 63.89 231.72 -147.47 -231.72 -147.47 0 63.89 -184.87 0c-8.58,-76.09 -72.89,-133.63 -149.46,-133.73l-200.59 0 0 -63.89 -231.72 147.46 231.72 147.48 0 -63.89 167.16 0c9.23,0 16.72,7.48 16.72,16.72l0 234.03 -183.88 0 0 -63.89 -231.72 147.46 231.72 147.48 0 -63.89 167.16 0c9.23,0 16.72,7.48 16.72,16.72l0 334.32 167.17 0 0 -167.16 183.88 0 0 63.89 231.72 -147.47 -231.72 -147.47 0 63.89zm-317.61 -412.07l0 -5.83c0,-27.7 -22.45,-50.15 -50.15,-50.15l-200.59 0 0 36.41 -136.04 -86.56 136.04 -86.55 0 36.4 234.03 0c58.54,0.07 108.04,43.33 115.96,101.33 -2.12,0.27 -4.16,0.74 -6.27,1.08 -2.46,0.4 -5.01,0.74 -7.37,1.25 -2.36,0.52 -4.81,1.21 -7.21,1.85 -2.39,0.65 -4.78,1.19 -7.1,1.94 -2.33,0.75 -4.61,1.67 -6.91,2.52 -2.3,0.86 -4.6,1.67 -6.83,2.63 -2.22,0.96 -4.34,2.07 -6.51,3.15 -2.18,1.07 -4.42,2.09 -6.56,3.34 -2.14,1.26 -4.06,2.46 -6.09,3.7 -2.02,1.24 -4.19,2.5 -6.21,3.89 -2.02,1.39 -3.81,2.84 -5.7,4.26 -1.89,1.43 -3.91,2.88 -5.78,4.43 -1.88,1.56 -3.55,3.2 -5.31,4.83 -1.75,1.63 -3.59,3.19 -5.3,4.91 -1.71,1.72 -3.34,3.56 -4.87,5.37 -1.52,1.8 -3.24,3.48 -4.74,5.31 -0.16,0.11 -0.33,0.28 -0.51,0.48l0 0zm117.02 -22.55l234.03 0 0 -36.41 136.04 86.55 -136.04 86.56 0 -36.41 -200.6 0c-27.69,0 -50.15,22.46 -50.15,50.15l0 156.28c-0.15,-0.2 -0.35,-0.37 -0.5,-0.56 -1.57,-1.93 -3.35,-3.72 -5.02,-5.55 -1.67,-1.85 -3.06,-3.53 -4.69,-5.19 -1.64,-1.65 -3.68,-3.35 -5.52,-5.11 -1.84,-1.77 -3.35,-3.18 -5.13,-4.66 -1.79,-1.5 -3.98,-3.06 -6,-4.58 -2.02,-1.53 -3.63,-2.85 -5.55,-4.15 -1.92,-1.31 -4.28,-2.68 -6.43,-4 -2.16,-1.32 -3.9,-2.49 -5.93,-3.61 -2.04,-1.12 -4.53,-2.26 -6.81,-3.35 -2.28,-1.08 -4.16,-2.11 -6.31,-3.04 -2.16,-0.93 -4.75,-1.8 -7.14,-2.69 -2.39,-0.89 -4.39,-1.67 -6.69,-2.44 -2.29,-0.77 -4.92,-1.32 -7.39,-1.98 -2.47,-0.65 -4.63,-1.3 -7.02,-1.8 -2.39,-0.5 -5.02,-0.84 -7.52,-1.24 -2.24,-0.35 -4.45,-0.83 -6.69,-1.09l0 -134.69c0.07,-64.61 52.45,-116.96 117.06,-117.01zm-16.72 735.52l-100.3 0 0 -300.89c0,-27.7 -22.45,-50.15 -50.15,-50.15l-200.59 0 0 36.41 -136.04 -86.56 136.04 -86.55 0 36.41 234.03 0c64.6,0.07 116.94,52.43 117.02,117.01l0 334.33zm250.74 -303.87l136.04 86.56 -136.04 86.56 0 -36.41 -217.31 0 0 -100.3 217.31 0 0 -36.41zm0 0z"></path></g></svg>