<svg xmlns="http://www.w3.org/2000/svg" fill-rule="evenodd" viewBox="0 0 1000 1000" xmlns:xlink="http://www.w3.org/1999/xlink" xmlns:xodm="http://www.corel.com/coreldraw/odm/2003" id="icon-save-nav"><g id="icon-save-nav_Layer_x0020_1"><metadata id="icon-save-nav_CorelCorpID_0Corel-Layer"></metadata><path class="nav_icon_save" d="M996.44 180.97l-177.38 -177.41c-2.28,-2.29 -5.35,-3.56 -8.58,-3.56l-754 0c-31.13,0 -56.48,25.35 -56.48,56.48l0 887.03c0,31.13 25.35,56.48 56.48,56.48l887.03 0c31.13,0 56.48,-25.35 56.48,-56.48l0 -753.97c0,-3.22 -1.28,-6.31 -3.56,-8.58zm-474.26 -156.7l88.7 0c5.53,0 10.04,4.51 10.04,10.04l0 177.41c0,5.53 -4.51,10.04 -10.04,10.04l-88.7 0c-5.53,0 -10.04,-4.51 -10.04,-10.04l0 -177.41c0,-5.53 4.51,-10.04 10.04,-10.04zm-266.11 0l221.76 0c5.53,0 10.04,4.51 10.04,10.04l0 199.58c0,6.71 5.42,12.14 12.13,12.14l133.06 0c6.71,0 12.13,-5.43 12.13,-12.14l0 -199.58c0,-5.53 4.51,-10.04 10.04,-10.04l88.7 0c5.53,0 10.04,4.51 10.04,10.04l0 310.46c0,5.53 -4.51,10.04 -10.04,10.04l-487.86 0.01c-5.53,0 -10.04,-4.51 -10.04,-10.04l0 -310.46c0,-5.53 4.51,-10.04 10.04,-10.04zm532.21 951.46l-576.57 0c-5.53,0 -10.04,-4.51 -10.04,-10.04l0 -443.51c0,-5.53 4.51,-10.04 10.04,-10.04l576.57 0c5.53,0 10.04,4.51 10.04,10.04l0 443.51c0,5.53 -4.51,10.04 -10.04,10.04zm187.45 -32.22c0,17.77 -14.45,32.22 -32.22,32.22l-110.88 0c-5.53,0 -10.04,-4.51 -10.04,-10.04l0 -465.69c0,-6.71 -5.43,-12.13 -12.14,-12.13l-620.91 0c-6.71,0 -12.14,5.42 -12.14,12.13l0 465.69c0,5.53 -4.51,10.04 -10.04,10.04l-110.88 0c-17.77,0 -32.22,-14.45 -32.22,-32.22l0 -887.03c0,-17.76 14.45,-32.22 32.22,-32.22l155.23 0c5.53,0 10.04,4.51 10.04,10.04l0 332.63c0,6.71 5.42,12.13 12.13,12.13l532.22 0c6.71,0 12.13,-5.43 12.13,-12.13l0 -332.63c0,-5.53 4.51,-10.04 10.04,-10.04l13.02 0c2.76,0 5.14,0.98 7.1,2.94l164.39 164.41c1.96,1.96 2.94,4.34 2.94,7.1l0 744.79z"></path></g></svg>