<svg xmlns="http://www.w3.org/2000/svg" fill-rule="evenodd" viewBox="0 0 1000 1000" xmlns:xlink="http://www.w3.org/1999/xlink" xmlns:xodm="http://www.corel.com/coreldraw/odm/2003" id="icon-security"><g id="icon-security_Layer_x0020_1"><metadata id="icon-security_CorelCorpID_0Corel-Layer"></metadata><path fill="none" stroke="#9CA9C4" stroke-width="27.78" stroke-linecap="round" stroke-linejoin="round" stroke-miterlimit="2.61313" d="M864.61 512.82c-15.64,0 -26.06,13.03 -26.06,26.06 0,15.63 10.43,26.06 26.06,26.06 13.03,0 26.06,-10.43 26.06,-26.06 0,-13.03 -13.03,-26.06 -26.06,-26.06l0 0z"></path><g><path fill-rule="nonzero" d="M748.84 436.94c-1.11,-0.26 -2.28,-0.41 -3.48,-0.41l-77.84 0 0 -56.42c0,-19.54 -29.7,-19.54 -29.7,0l0 56.42 -71.27 0 0 -139.23c0,-106.73 -85.23,-195.29 -191.96,-196.33 -107.78,-1.04 -195.79,86.33 -195.79,193.87l0 141.69 -71.28 0 0 -138.76c0,-146.31 117.29,-267.23 263.61,-268.07 146.91,-0.85 266.7,118.43 266.7,265.15l0 107.72c0,14.89 29.7,14.61 29.7,-10.62l0 -94.27c0,-162.97 -131.04,-297.24 -294.02,-297.69 -162.97,-0.45 -295.69,132 -295.69,294.85l0 141.69 -77.83 0c-8.2,0 -14.85,6.65 -14.85,14.85l0 456.73c0,-3.64 6.66,-6.07 14.85,-10.53 8.2,10.21 14.85,20.01 14.85,31.04l0 -462.41 699.74 0 34.26 -29.28zm-18.33 291.83l0 241.52 -715.68 0 0 -61.57c0,-8.2 -6.65,-14.85 -14.85,-14.85 -8.2,0 -14.85,6.65 -14.85,14.85l0 76.42c0,8.2 6.66,14.84 14.85,14.84l745.38 0.01c8.2,0 14.85,-6.65 14.85,-14.85l0 -279.32 -29.7 22.95zm-193.66 -292.24l-328.36 0 0 -141.69c0,-90.53 73.65,-164.18 164.19,-164.18 90.53,0 164.18,73.65 164.18,164.18l0 141.69z"></path></g><path fill-rule="nonzero" d="M467.71 668.15c0,-52.4 -42.63,-95.03 -95.03,-95.03 -52.4,0 -95.03,42.63 -95.03,95.03 0,31.44 15.47,60.54 40.98,78.17l-11.66 89.17c-0.56,4.24 0.74,8.51 3.56,11.72 2.82,3.21 6.89,5.06 11.16,5.06l101.96 0c4.28,0 8.34,-1.84 11.16,-5.06 2.82,-3.21 4.12,-7.48 3.56,-11.72l-11.66 -89.17c25.51,-17.63 40.98,-46.73 40.98,-78.17zm-64.02 57.52c-5.41,2.93 -8.46,8.89 -7.66,14.99l10.71 81.92 -68.13 -0 10.71 -81.92c0.8,-6.1 -2.25,-12.06 -7.66,-14.99 -21.17,-11.44 -34.31,-33.48 -34.31,-57.51 0,-36.02 29.31,-65.33 65.33,-65.33 36.02,0 65.33,29.31 65.33,65.33 0.01,24.03 -13.15,46.07 -34.31,57.52z"></path><path fill="none" stroke="#9CA9C4" stroke-width="27.78" stroke-linecap="round" stroke-linejoin="round" stroke-miterlimit="2.61313" d="M687.41 551.91c0,-91.21 65.15,-130.3 130.3,-135.51 75.57,-7.82 166.78,62.54 166.78,156.36 -2.61,96.42 -80.79,135.51 -117.27,135.51 -44.3,0 -86,-23.45 -86,-23.45 -41.7,41.7 -41.7,41.7 -41.7,41.7 -20.85,5.21 -20.85,5.21 -20.85,5.21 -20.85,-7.82 -20.85,-7.82 -20.85,-7.82 -20.85,20.85 -20.85,20.85 -20.85,20.85 -28.67,0 -28.67,0 -28.67,0 -26.06,26.06 -26.06,26.06 -26.06,26.06 5.21,28.67 5.21,28.67 5.21,28.67 -52.12,54.73 -52.12,54.73 -52.12,54.73 -18.24,0 -18.24,0 -18.24,0 -31.27,31.27 -31.27,31.27 -31.27,31.27 2.61,10.42 2.61,10.42 2.61,10.42 -15.63,2.61 -15.63,2.61 -15.63,2.61 -10.43,7.82 -10.43,7.82 -10.43,7.82 -15.63,2.61 -15.63,2.61 -15.63,2.61 -26.06,26.06 -26.06,26.06 -26.06,26.06 0,15.63 0,15.63 0,15.63 -13.03,10.43 -13.03,10.43 -13.03,10.43 -23.45,-7.82 -23.45,-7.82 -23.45,-7.82 -20.85,-44.3 -20.85,-44.3 -20.85,-44.3 297.08,-297.08 297.08,-297.08 297.08,-297.08 0,0 -15.64,-23.45 -13.03,-59.94l0 0z"></path></g></svg>