<svg xmlns="http://www.w3.org/2000/svg" fill-rule="evenodd" viewBox="0 0 1000 1000" xmlns:xlink="http://www.w3.org/1999/xlink" xmlns:xodm="http://www.corel.com/coreldraw/odm/2003" id="icon-system"><g id="icon-system_Layer_x0020_1"><metadata id="icon-system_CorelCorpID_0Corel-Layer"></metadata><path class="icon_hover" fill-rule="nonzero" d="M66.67 866.67l275.95 0 -37.5 100 -38.45 0 0 33.33 333.33 0 0 -33.33 -38.45 0 -37.5 -100 275.95 0c36.81,0 66.67,-29.85 66.67,-66.67l0 -250 -33.33 0 0 183.33 -800 0 0 -466.67c0,-18.41 14.93,-33.33 33.33,-33.33l333.33 0 0 -33.33 -333.33 0c-36.81,0 -66.67,29.85 -66.67,66.67l0 533.33c0,36.81 29.85,66.67 66.67,66.67zm459.29 100l-185.24 0 37.5 -100 110.24 0 37.5 100zm307.38 -200l0 33.33c0,18.41 -14.93,33.33 -33.33,33.33l-733.33 0c-18.41,0 -33.33,-14.93 -33.33,-33.33l0 -33.33 800 0zm0 0z"></path><path class="icon_hover" fill-rule="nonzero" d="M66.67 266.67l33.33 0 0 33.33 -33.33 0 0 -33.33zm0 0z"></path><path class="icon_hover" fill-rule="nonzero" d="M133.33 266.67l33.33 0 0 33.33 -33.33 0 0 -33.33zm0 0z"></path><path class="icon_hover" fill-rule="nonzero" d="M200 266.67l33.33 0 0 33.33 -33.33 0 0 -33.33zm0 0z"></path><path class="icon_hover" fill-rule="nonzero" d="M66.67 333.33l333.33 0 0 33.33 -333.33 0 0 -33.33zm0 0z"></path><path class="icon_hover" fill-rule="nonzero" d="M66.67 400l100 0 0 33.33 -100 0 0 -33.33zm0 0z"></path><path class="icon_hover" fill-rule="nonzero" d="M66.67 466.67l100 0 0 33.33 -100 0 0 -33.33zm0 0z"></path><path class="icon_hover" fill-rule="nonzero" d="M66.67 533.33l100 0 0 33.33 -100 0 0 -33.33zm0 0z"></path><path class="icon_hover" fill-rule="nonzero" d="M66.67 600l100 0 0 33.33 -100 0 0 -33.33zm0 0z"></path><path class="icon_hover" fill-rule="nonzero" d="M66.67 666.67l100 0 0 33.33 -100 0 0 -33.33zm0 0z"></path><path class="icon_hover" fill-rule="nonzero" d="M200 400l33.33 0 0 300 -33.33 0 0 -300zm0 0z"></path><path class="icon_hover" fill-rule="nonzero" d="M266.67 400l83.33 0 0 33.33 -83.33 0 0 -33.33zm0 0z"></path><path class="icon_hover" fill-rule="nonzero" d="M350 466.67l83.33 0 0 33.33 -83.33 0 0 -33.33zm0 0z"></path><path class="icon_hover" fill-rule="nonzero" d="M433.33 533.33l83.33 0 0 33.33 -83.33 0 0 -33.33zm0 0z"></path><path class="icon_hover" fill-rule="nonzero" d="M516.67 600l150 0 0 33.33 -150 0 0 -33.33zm0 0z"></path><path class="icon_hover" fill-rule="nonzero" d="M666.67 666.67l100 0 0 33.33 -100 0 0 -33.33zm0 0z"></path><path class="icon_hover" fill-rule="nonzero" d="M983.33 216.67l-43.24 0c-4.56,-15.31 -10.71,-30.11 -18.33,-44.15l30.6 -30.6c6.5,-6.51 6.5,-17.06 0,-23.57l-70.7 -70.74c-6.51,-6.5 -17.06,-6.5 -23.57,0l-30.62 30.6c-14.04,-7.61 -28.84,-13.75 -44.15,-18.31l0 -43.24c0,-9.2 -7.46,-16.67 -16.67,-16.67l-100 0c-9.2,0 -16.67,7.46 -16.67,16.67l0 43.24c-15.31,4.56 -30.11,10.71 -44.15,18.32l-30.6 -30.61c-6.51,-6.5 -17.06,-6.5 -23.57,0l-70.74 70.72c-6.5,6.51 -6.5,17.06 0,23.57l30.6 30.6c-7.62,14.05 -13.75,28.85 -18.31,44.17l-43.24 0c-9.2,0 -16.67,7.46 -16.67,16.67l0 100c0,9.2 7.46,16.67 16.67,16.67l43.24 0c4.57,15.31 10.71,30.11 18.33,44.15l-30.6 30.6c-6.5,6.51 -6.5,17.06 0,23.57l70.7 70.72c6.51,6.5 17.06,6.5 23.57,0l30.6 -30.58c14.05,7.61 28.85,13.75 44.17,18.31l0 43.24c0,9.2 7.46,16.67 16.67,16.67l100 0c9.2,0 16.67,-7.46 16.67,-16.67l0 -43.24c15.31,-4.57 30.11,-10.71 44.15,-18.33l30.6 30.58c6.51,6.5 17.06,6.5 23.57,0l70.73 -70.69c6.5,-6.51 6.5,-17.06 0,-23.57l-30.6 -30.6c7.62,-14.05 13.76,-28.85 18.31,-44.17l43.24 0c9.2,0 16.67,-7.46 16.67,-16.67l0 -100c0,-9.2 -7.46,-16.67 -16.67,-16.67l0 0zm-16.67 100l-39.35 0c-7.73,0 -14.44,5.31 -16.22,12.83 -4.92,20.72 -13.14,40.51 -24.33,58.63 -4.06,6.58 -3.07,15.09 2.4,20.55l27.85 27.85 -47.15 47.15 -27.85 -27.85c-5.46,-5.47 -13.97,-6.46 -20.55,-2.4 -18.12,11.19 -37.92,19.41 -58.63,24.33 -7.52,1.78 -12.83,8.49 -12.83,16.22l0 39.35 -66.67 0 0 -39.35c0,-7.73 -5.31,-14.44 -12.83,-16.22 -20.72,-4.93 -40.51,-13.14 -58.63,-24.33 -6.58,-4.06 -15.09,-3.07 -20.55,2.4l-27.85 27.85 -47.15 -47.15 27.85 -27.85c5.47,-5.46 6.46,-13.98 2.4,-20.55 -11.19,-18.12 -19.41,-37.91 -24.33,-58.63 -1.78,-7.52 -8.49,-12.83 -16.22,-12.83l-39.35 0 0 -66.67 39.35 0c7.73,0 14.44,-5.31 16.22,-12.83 4.93,-20.72 13.14,-40.51 24.33,-58.63 4.06,-6.57 3.07,-15.09 -2.4,-20.55l-27.85 -27.85 47.15 -47.15 27.85 27.85c5.46,5.47 13.98,6.46 20.55,2.4 18.12,-11.19 37.91,-19.41 58.63,-24.33 7.52,-1.78 12.83,-8.49 12.83,-16.22l0 -39.35 66.67 0 0 39.35c0,7.73 5.31,14.44 12.83,16.22 20.72,4.92 40.51,13.14 58.63,24.33 6.57,4.06 15.09,3.07 20.55,-2.4l27.85 -27.85 47.15 47.15 -27.85 27.85c-5.47,5.46 -6.46,13.97 -2.4,20.55 11.19,18.12 19.41,37.92 24.33,58.63 1.78,7.52 8.49,12.83 16.22,12.83l39.35 0 0 66.67zm0 0z"></path><path class="icon_hover" fill-rule="nonzero" d="M716.67 133.33c-82.84,0 -150,67.15 -150,150 0,82.84 67.16,150 150,150 82.85,0 150,-67.16 150,-150l0 -16.67c-0.06,-11.24 -2.93,-22.28 -8.33,-32.13 -20.86,-60.46 -77.71,-101.07 -141.67,-101.2zm0 266.67c-64.44,0 -116.67,-52.23 -116.67,-116.67 0,-64.44 52.23,-116.67 116.67,-116.67 64.44,0 116.67,52.23 116.67,116.67 -0.08,64.39 -52.27,116.58 -116.67,116.67zm0 0z"></path></g></svg>