<svg xmlns="http://www.w3.org/2000/svg" fill-rule="evenodd" viewBox="0 0 1000 1000" xmlns:xlink="http://www.w3.org/1999/xlink" xmlns:xodm="http://www.corel.com/coreldraw/odm/2003" id="icon-tools"><g id="icon-tools_Layer_x0020_1"><metadata id="icon-tools_CorelCorpID_0Corel-Layer"></metadata><g id="icon-tools_customer-support.svg"><path class="icon_hover" fill-rule="nonzero" d="M2.2 91.65l66.64 116.61c2.25,3.94 6.01,6.79 10.41,7.89l62.17 15.54 213.24 213.24 23.56 -23.56 -216.58 -216.57c-2.13,-2.14 -4.8,-3.65 -7.73,-4.39l-59.74 -14.99 -56.74 -99.35 48.65 -48.64 99.39 56.79 15 59.74c0.72,2.93 2.25,5.61 4.38,7.74l216.58 216.58 23.56 -23.56 -213.24 -213.24 -15.54 -62.14c-1.11,-4.41 -3.96,-8.17 -7.9,-10.43l-116.62 -66.63c-6.5,-3.7 -14.69,-2.61 -19.99,2.68l-66.64 66.64c-5.36,5.27 -6.52,13.47 -2.85,20.02l0 0zm0 0z"></path><path class="icon_hover" fill-rule="nonzero" d="M694.83 328.32l-366.51 366.51 -23.56 -23.56 366.52 -366.51 23.56 23.56zm0 0z"></path><path class="icon_hover" fill-rule="nonzero" d="M264.17 707.8c-3.02,-5.02 -8.43,-8.08 -14.28,-8.08l-99.95 -0c-5.85,0 -11.27,3.07 -14.28,8.08l-49.98 83.29c-3.17,5.28 -3.17,11.88 0,17.16l49.98 83.3c3.01,5.01 8.43,8.08 14.28,8.08l99.95 0c5.85,0 11.27,-3.07 14.28,-8.08l49.97 -83.29c3.17,-5.28 3.17,-11.89 0,-17.16l-49.97 -83.3zm-23.7 158.51l-81.1 0 -39.98 -66.63 39.98 -66.64 81.1 0 39.98 66.64 -39.98 66.63zm0 0z"></path><path class="icon_hover" fill-rule="nonzero" d="M799.65 399.85c110.03,0.37 199.53,-88.53 199.91,-198.56 0.05,-16.75 -2,-33.43 -6.12,-49.67 -2.22,-8.93 -11.26,-14.37 -20.19,-12.15 -2.93,0.73 -5.61,2.25 -7.74,4.38l-103.7 103.64 -82.28 -27.42 -27.44 -82.26 103.7 -103.72c6.5,-6.51 6.5,-17.06 -0.02,-23.56 -2.15,-2.15 -4.85,-3.67 -7.8,-4.39 -106.7,-27.02 -215.1,37.57 -242.13,144.27 -4.11,16.19 -6.15,32.83 -6.1,49.53 0.04,13.12 1.39,26.19 4.05,39.04l-364.85 364.84c-12.84,-2.65 -25.92,-4 -39.03,-4.05 -110.41,0 -199.92,89.5 -199.92,199.92 0,110.41 89.5,199.91 199.92,199.91 110.41,0 199.91,-89.5 199.91,-199.91 -0.04,-13.12 -1.4,-26.19 -4.05,-39.04l87.35 -87.35 38.2 38.2c6.51,6.5 17.05,6.5 23.56,0l8.33 -8.33c7.31,-7.26 19.11,-7.26 26.42,0 7.3,7.28 7.31,19.09 0.03,26.39 -0,0.01 -0.02,0.02 -0.03,0.04l-8.33 8.33c-6.5,6.5 -6.5,17.05 0,23.56l198.73 198.73c52.27,52.75 137.4,53.13 190.15,0.87 52.74,-52.27 53.13,-137.41 0.85,-190.15 -0.28,-0.29 -0.57,-0.57 -0.85,-0.86l-198.73 -198.72c-6.5,-6.5 -17.05,-6.5 -23.56,0l-8.33 8.33c-7.31,7.26 -19.11,7.26 -26.43,0 -7.29,-7.28 -7.31,-19.09 -0.04,-26.39 0.02,-0.01 0.03,-0.02 0.04,-0.04l8.33 -8.33c6.5,-6.5 6.5,-17.05 0,-23.56l-38.2 -38.2 87.34 -87.35c12.85,2.65 25.92,4.01 39.03,4.05l0 0zm65.46 566.42c-12.1,-0.02 -24.1,-2.2 -35.43,-6.46l130.11 -130.11c19.63,52.23 -6.78,110.48 -59.01,130.11 -11.4,4.28 -23.48,6.48 -35.67,6.46zm-188.73 -432.98c-18.45,22 -15.56,54.8 6.45,73.25 19.34,16.21 47.53,16.19 66.85,-0.05l186.96 187.12c2.03,2.04 3.93,4.18 5.76,6.36l-142.44 142.44c-2.19,-1.83 -4.33,-3.73 -6.37,-5.76l-187.1 -187.11c18.45,-22 15.56,-54.8 -6.45,-73.25 -19.34,-16.21 -47.53,-16.19 -66.85,0.04l-26.65 -26.65 143.19 -142.97 26.66 26.59zm67.27 -167.56l-377.93 377.85c-4.15,4.14 -5.81,10.15 -4.4,15.83 22.86,89.76 -31.38,181.05 -121.15,203.9 -89.76,22.85 -181.05,-31.38 -203.91,-121.15 -22.85,-89.76 31.39,-181.05 121.15,-203.91 27.15,-6.91 55.6,-6.91 82.75,0 5.69,1.39 11.68,-0.28 15.83,-4.39l377.83 -377.86c4.14,-4.14 5.8,-10.15 4.38,-15.82 -22.7,-88.71 30.81,-179.02 119.52,-201.72 16.76,-4.28 34.1,-5.93 51.37,-4.85l-87.88 87.91c-4.46,4.46 -6.02,11.06 -4.03,17.04l33.31 99.96c1.67,4.97 5.57,8.87 10.55,10.53l99.96 33.32c5.98,2 12.57,0.44 17.04,-4.02l87.88 -87.88c0.2,3.18 0.3,6.32 0.3,9.46 0.46,91.54 -73.36,166.12 -164.9,166.59 -14.15,0.07 -28.26,-1.67 -41.96,-5.18 -5.68,-1.42 -11.69,0.24 -15.83,4.38l0.09 0 0 0.01zm0 0z"></path><path class="icon_hover" fill-rule="nonzero" d="M861.43 837.87l-23.56 23.56 -166.59 -166.59 23.56 -23.56 166.59 166.59zm0 0z"></path></g></g></svg>