<svg xmlns="http://www.w3.org/2000/svg" viewBox="0 0 1100 1100" xmlns:xlink="http://www.w3.org/1999/xlink" xmlns:xodm="http://www.corel.com/coreldraw/odm/2003" id="icon-Wizard"><defs><style type="text/css">
   
    #icon-Wizard .fil0 {fill:none}
    #icon-Wizard .fil1 {fill:#373435;fill-rule:nonzero}
   
  </style></defs><g><path class="nav_icon_Wizard" d="M738.29 452.78l-24.98 -33.35 0.38 -0.28 -0.38 0.28 0.01 -0.01 0.01 -0 0.01 -0.01 0.01 -0 0.01 -0.01 3.19 -1.97 -3.18 1.96 0.01 -0.01 0.01 -0 0.01 -0.01 0.01 -0 -2.22 1.93 0 -0 2.24 -1.94 3.19 -1.97 -3.18 1.96 0.01 -0.01 0.01 -0 0.01 -0.01 0.01 -0 0.01 -0.01 0.01 -0 0.01 -0.01 3.19 -1.97 -3.18 1.96 -2.22 1.93 0 -0 2.24 -1.94 0.01 -0 0.01 -0.01 0.01 -0 25 33.33 -0.01 0 -0.01 0.01 -0.01 0 2.22 -1.93 -0 0 -2.24 1.94 -3.19 1.97 3.18 -1.96 -0.01 0.01 -0.01 0 -0.01 0.01 -0.01 0 -0.01 0.01 -0.01 0 -0.01 0.01 -3.19 1.97 3.18 -1.96 2.22 -1.93 -0 0 -2.24 1.94 -0.01 0 -0.01 0.01 -0.01 0 -0.01 0.01 -3.19 1.97 3.18 -1.96 -0.01 0.01 -0.01 0 -0.01 0.01 -0.01 0 -0.01 0.01 -0.4 0.29 0.38 -0.28zm-0.38 0.28c-9.36,6.69 -22.38,4.52 -29.06,-4.84 -6.69,-9.36 -4.52,-22.38 4.84,-29.06l24.22 33.91zm-678.94 456.4l654.34 -490.02 24.98 33.35 -654.34 490.02 -24.98 -33.35zm24.98 33.35c-9.2,6.89 -22.27,5.02 -29.16,-4.19 -6.89,-9.2 -5.02,-22.27 4.19,-29.16l24.98 33.35zm-6.57 46.15l-33.35 24.97 0 0.01 -2.21 -3.11 -2.04 -3.2 -1.86 -3.28 -1.68 -3.34 -1.49 -3.38 -1.32 -3.44 -1.14 -3.5 -0.96 -3.51 -0.79 -3.54 -0.61 -3.58 -0.43 -3.57 -0.26 -3.56 -0.09 -3.6 0.09 -3.59 0.25 -3.55 0.42 -3.56 0.59 -3.53 0.76 -3.49 0.92 -3.46 1.09 -3.42 1.25 -3.37 1.42 -3.32 1.58 -3.26 1.74 -3.19 1.91 -3.12 2.07 -3.02 2.23 -2.94 2.4 -2.85 2.54 -2.73 2.7 -2.62 2.86 -2.5 2.99 -2.36 24.98 33.35 -1.34 1.06 -1.25 1.09 -1.18 1.15 -1.12 1.2 -1.04 1.23 -0.98 1.29 -0.91 1.33 -0.83 1.36 -0.77 1.4 -0.69 1.43 -0.63 1.47 -0.55 1.49 -0.49 1.53 -0.41 1.54 -0.34 1.56 -0.26 1.56 -0.19 1.58 -0.11 1.62 -0.04 1.59 0.04 1.58 0.12 1.61 0.19 1.59 0.26 1.56 0.35 1.57 0.42 1.55 0.5 1.51 0.58 1.51 0.66 1.5 0.73 1.46 0.81 1.43 0.89 1.41 0.99 1.39 0 0.01zm-0 -0.01c6.9,9.2 5.02,22.27 -4.18,29.17 -9.2,6.9 -22.27,5.02 -29.17,-4.18l33.35 -24.98zm-27.52 32.76l-5.83 -7.78 33.35 -24.97 5.83 7.78 -33.35 24.98 -0 -0.01zm33.35 -24.97c6.89,9.21 5.02,22.27 -4.19,29.16 -9.21,6.89 -22.27,5.02 -29.16,-4.19l33.35 -24.97zm26.39 13.11l0 41.67 0 0 -2.2 -0.04 -2.17 -0.1 -2.17 -0.16 -2.16 -0.22 -2.15 -0.28 -2.15 -0.35 -2.11 -0.41 -2.11 -0.47 -2.09 -0.53 -2.08 -0.59 -2.04 -0.65 -2.01 -0.69 -2 -0.76 -2.01 -0.83 -1.96 -0.87 -1.93 -0.93 -1.91 -0.98 -1.87 -1.03 -1.85 -1.09 -1.81 -1.13 -1.8 -1.2 -1.76 -1.26 -1.71 -1.29 -1.68 -1.35 -1.64 -1.4 -1.61 -1.46 -1.58 -1.52 -1.52 -1.55 -1.48 -1.59 -1.44 -1.65 -1.38 -1.68 -1.35 -1.75 33.35 -24.98 0.57 0.74 0.61 0.74 0.62 0.71 0.65 0.7 0.67 0.68 0.67 0.64 0.7 0.63 0.73 0.62 0.74 0.6 0.77 0.58 0.77 0.55 0.79 0.52 0.82 0.52 0.81 0.48 0.85 0.47 0.85 0.44 0.87 0.41 0.88 0.39 0.87 0.35 0.89 0.34 0.93 0.32 0.93 0.29 0.91 0.26 0.93 0.23 0.93 0.21 0.95 0.19 0.93 0.15 0.94 0.13 0.95 0.1 0.96 0.07 0.97 0.04 0.94 0.01 0 0zm0 0c11.5,0 20.83,9.33 20.83,20.83 0,11.5 -9.33,20.83 -20.83,20.83l0 -41.67zm19.64 -6.52l24.98 33.35 0 0 -1.22 0.89 -1.25 0.88 -1.24 0.83 -1.24 0.81 -1.3 0.8 -1.28 0.76 -1.29 0.73 -1.34 0.72 -1.31 0.68 -1.35 0.65 -1.35 0.62 -1.38 0.6 -1.37 0.56 -1.38 0.54 -1.42 0.52 -1.43 0.49 -1.4 0.44 -1.42 0.43 -1.45 0.4 -1.43 0.36 -1.46 0.34 -1.47 0.31 -1.44 0.28 -1.48 0.25 -1.46 0.22 -1.49 0.2 -1.5 0.16 -1.46 0.13 -1.55 0.11 -1.51 0.07 -1.46 0.04 -1.51 0.02 0 -41.67 0.68 -0 0.72 -0.02 0.67 -0.03 0.62 -0.04 0.69 -0.06 0.65 -0.07 0.65 -0.09 0.68 -0.1 0.63 -0.11 0.67 -0.13 0.61 -0.13 0.63 -0.15 0.64 -0.17 0.61 -0.17 0.63 -0.19 0.63 -0.2 0.6 -0.2 0.58 -0.21 0.61 -0.24 0.6 -0.25 0.58 -0.26 0.6 -0.28 0.58 -0.28 0.59 -0.3 0.56 -0.3 0.58 -0.33 0.59 -0.34 0.54 -0.34 0.57 -0.37 0.57 -0.39 0.54 -0.37 0.55 -0.41 0 0zm0 -0c9.21,-6.89 22.27,-5.02 29.17,4.19 6.89,9.21 5.02,22.27 -4.19,29.17l-24.98 -33.35zm837.57 -575.3l-812.59 608.65 -24.98 -33.35 812.59 -608.65 24.98 33.35 -0 0zm-24.98 -33.35c9.2,-6.89 22.27,-5.02 29.16,4.19 6.89,9.2 5.02,22.27 -4.19,29.16l-24.98 -33.35zm12.94 -21.74l41.24 5.97 0 -0 -0.29 1.83 -0.33 1.83 -0.37 1.81 -0.42 1.81 -0.46 1.76 -0.5 1.76 -0.55 1.77 -0.59 1.74 -0.63 1.73 -0.67 1.7 -0.71 1.68 -0.76 1.67 -0.79 1.63 -0.83 1.61 -0.87 1.59 -0.92 1.59 -0.95 1.55 -1 1.55 -1.04 1.51 -1.04 1.45 -1.09 1.44 -1.15 1.45 -1.19 1.42 -1.19 1.35 -1.24 1.35 -1.28 1.31 -1.3 1.28 -1.35 1.27 -1.39 1.23 -1.4 1.19 -1.43 1.15 -1.47 1.13 -24.98 -33.35 0.67 -0.52 0.66 -0.53 0.65 -0.55 0.61 -0.54 0.59 -0.55 0.59 -0.58 0.57 -0.59 0.56 -0.6 0.55 -0.62 0.5 -0.6 0.48 -0.61 0.49 -0.65 0.49 -0.68 0.44 -0.65 0.41 -0.65 0.42 -0.69 0.39 -0.67 0.38 -0.7 0.37 -0.71 0.35 -0.73 0.33 -0.72 0.31 -0.74 0.3 -0.74 0.27 -0.74 0.26 -0.77 0.24 -0.76 0.23 -0.8 0.21 -0.81 0.19 -0.79 0.17 -0.81 0.15 -0.81 0.13 -0.84 0 -0zm0 0c1.65,-11.39 12.21,-19.28 23.6,-17.64 11.39,1.65 19.28,12.21 17.64,23.6l-41.24 -5.96zm-6.28 -24.44l33.35 -24.98 0 -0 1.09 1.49 1.06 1.53 1 1.52 0.98 1.56 0.95 1.61 0.89 1.59 0.85 1.61 0.82 1.66 0.77 1.65 0.73 1.67 0.69 1.7 0.65 1.72 0.6 1.7 0.57 1.74 0.52 1.75 0.47 1.73 0.44 1.81 0.38 1.78 0.35 1.78 0.3 1.8 0.26 1.8 0.21 1.8 0.17 1.81 0.12 1.88 0.07 1.81 0.03 1.81 -0.02 1.85 -0.06 1.85 -0.11 1.85 -0.15 1.81 -0.2 1.85 -0.24 1.85 -41.24 -5.97 0.11 -0.82 0.09 -0.83 0.07 -0.85 0.05 -0.81 0.03 -0.81 0.01 -0.8 -0.02 -0.82 -0.03 -0.82 -0.05 -0.75 -0.07 -0.8 -0.09 -0.8 -0.11 -0.8 -0.13 -0.78 -0.15 -0.78 -0.17 -0.78 -0.18 -0.73 -0.21 -0.79 -0.22 -0.76 -0.24 -0.74 -0.27 -0.77 -0.28 -0.73 -0.3 -0.74 -0.33 -0.74 -0.34 -0.74 -0.35 -0.7 -0.39 -0.73 -0.41 -0.73 -0.4 -0.69 -0.44 -0.7 -0.48 -0.72 -0.47 -0.68 -0.5 -0.68 0 -0zm0 0c-6.9,-9.2 -5.02,-22.27 4.18,-29.17 9.2,-6.9 22.27,-5.02 29.17,4.18l-33.35 24.98zm27.58 -32.68l5.77 7.7 -33.35 24.98 -5.77 -7.7 33.35 -24.98 0 0zm-33.35 24.98c-6.89,-9.2 -5.02,-22.27 4.19,-29.16 9.2,-6.89 22.27,-5.02 29.16,4.19l-33.35 24.98zm-26.39 -13.18l0 -41.67 0 0 2.2 0.04 2.17 0.1 2.2 0.16 2.16 0.23 2.13 0.28 2.17 0.36 2.11 0.41 2.1 0.47 2.09 0.53 2.06 0.59 2.07 0.65 2.02 0.7 2 0.76 1.99 0.83 1.95 0.87 1.94 0.93 1.9 0.98 1.85 1.03 1.87 1.1 1.82 1.15 1.77 1.18 1.77 1.26 1.72 1.31 1.65 1.33 1.65 1.41 1.63 1.48 1.54 1.48 1.53 1.55 1.49 1.61 1.43 1.64 1.39 1.69 1.35 1.74 -33.35 24.98 -0.58 -0.76 -0.6 -0.73 -0.63 -0.72 -0.63 -0.69 -0.67 -0.68 -0.71 -0.69 -0.68 -0.62 -0.72 -0.61 -0.77 -0.63 -0.75 -0.57 -0.76 -0.54 -0.81 -0.55 -0.8 -0.51 -0.8 -0.47 -0.86 -0.48 -0.85 -0.44 -0.86 -0.41 -0.89 -0.4 -0.87 -0.36 -0.9 -0.34 -0.91 -0.32 -0.89 -0.28 -0.93 -0.26 -0.93 -0.24 -0.94 -0.2 -0.95 -0.19 -0.91 -0.15 -0.97 -0.13 -0.95 -0.1 -0.94 -0.07 -0.97 -0.04 -0.95 -0.01 0 0zm0 0c-11.5,0 -20.83,-9.33 -20.83,-20.83 0,-11.5 9.33,-20.83 20.83,-20.83l0 41.67zm-19.65 6.57l-24.98 -33.35 0 0 1.22 -0.89 1.25 -0.88 1.21 -0.81 1.24 -0.81 1.31 -0.81 1.3 -0.76 1.26 -0.71 1.33 -0.72 1.34 -0.69 1.33 -0.65 1.37 -0.63 1.32 -0.58 1.42 -0.59 1.4 -0.55 1.34 -0.5 1.43 -0.5 1.44 -0.46 1.41 -0.42 1.45 -0.41 1.46 -0.37 1.43 -0.33 1.44 -0.31 1.47 -0.28 1.48 -0.26 1.49 -0.22 1.49 -0.19 1.46 -0.16 1.5 -0.14 1.5 -0.1 1.5 -0.07 1.51 -0.04 1.51 -0.02 0 41.67 -0.68 0 -0.68 0.02 -0.67 0.04 -0.66 0.05 -0.66 0.06 -0.69 0.07 -0.65 0.08 -0.64 0.1 -0.63 0.11 -0.64 0.13 -0.65 0.14 -0.65 0.15 -0.61 0.15 -0.61 0.17 -0.64 0.19 -0.59 0.19 -0.58 0.2 -0.66 0.24 -0.59 0.22 -0.56 0.24 -0.63 0.28 -0.58 0.27 -0.6 0.29 -0.57 0.29 -0.56 0.3 -0.62 0.35 -0.56 0.33 -0.54 0.33 -0.57 0.37 -0.6 0.41 -0.54 0.37 -0.55 0.41 0 0zm0 0c-9.21,6.89 -22.27,5.02 -29.17,-4.19 -6.89,-9.21 -5.02,-22.27 4.19,-29.17l24.98 33.35zm-182.93 84.92l157.95 -118.27 24.98 33.35 -157.95 118.27 -0.78 0.55 -24.2 -33.91zm24.98 33.35c-9.21,6.89 -22.27,5.02 -29.17,-4.19 -6.89,-9.21 -5.02,-22.27 4.19,-29.17l24.98 33.35zm-24.4 -33.77l0.2 -0.13 23.43 34.46 -0.2 0.13 -24.21 -33.89 0.79 -0.56zm23.43 34.46c-9.51,6.47 -22.47,4 -28.94,-5.52 -6.47,-9.51 -4,-22.47 5.52,-28.94l23.43 34.46zm-684.72 566.09l33.37 -24.95 -0 -0 0.87 1.11 0.93 1.06 0.97 1 1.02 0.94 1.06 0.88 1.11 0.83 1.17 0.79 1.19 0.72 1.24 0.67 1.27 0.61 1.31 0.56 1.34 0.5 1.36 0.43 1.39 0.37 1.4 0.3 1.41 0.24 1.41 0.17 1.44 0.1 1.45 0.04 1.42 -0.03 1.41 -0.09 1.41 -0.16 1.39 -0.22 1.37 -0.3 1.37 -0.37 1.32 -0.42 1.31 -0.49 1.28 -0.56 1.24 -0.61 1.22 -0.69 1.19 -0.75 1.16 -0.82 24.98 33.35 -2.94 2.09 -3.03 1.92 -3.09 1.74 -3.17 1.57 -3.22 1.39 -3.26 1.22 -3.31 1.06 -3.31 0.88 -3.36 0.72 -3.38 0.56 -3.38 0.39 -3.39 0.23 -3.4 0.06 -3.35 -0.09 -3.36 -0.24 -3.36 -0.41 -3.33 -0.56 -3.3 -0.71 -3.26 -0.87 -3.23 -1.02 -3.18 -1.17 -3.13 -1.32 -3.08 -1.48 -3.01 -1.63 -2.95 -1.79 -2.86 -1.93 -2.78 -2.09 -2.7 -2.25 -2.59 -2.39 -2.48 -2.54 -2.36 -2.69 -2.24 -2.83 -0 -0zm27.58 -32.69l5.79 7.74 -33.37 24.95 -5.79 -7.74 33.37 -24.95 0 0zm-19.19 -73.91l24.98 33.35 0 -0 -1.17 0.93 -1.1 0.97 -1.06 1.02 -0.98 1.05 -0.91 1.09 -0.86 1.13 -0.79 1.16 -0.74 1.2 -0.67 1.23 -0.61 1.24 -0.56 1.3 -0.49 1.32 -0.43 1.33 -0.36 1.34 -0.3 1.37 -0.23 1.4 -0.17 1.39 -0.1 1.39 -0.03 1.4 0.03 1.39 0.11 1.41 0.17 1.41 0.23 1.37 0.3 1.37 0.37 1.35 0.44 1.35 0.5 1.33 0.57 1.3 0.65 1.28 0.72 1.27 0.8 1.25 0.86 1.22 -33.36 24.95 -2.09 -2.94 -1.92 -3.02 -1.76 -3.09 -1.58 -3.16 -1.42 -3.22 -1.24 -3.26 -1.08 -3.3 -0.91 -3.33 -0.74 -3.35 -0.58 -3.39 -0.41 -3.37 -0.25 -3.39 -0.09 -3.41 0.08 -3.39 0.24 -3.38 0.4 -3.35 0.56 -3.31 0.71 -3.31 0.88 -3.29 1.03 -3.24 1.19 -3.17 1.33 -3.13 1.5 -3.09 1.66 -3.02 1.81 -2.94 1.96 -2.86 2.11 -2.78 2.27 -2.69 2.42 -2.59 2.54 -2.47 2.7 -2.37 2.84 -2.24 0 -0zm678.15 -455.79l-653.17 489.14 -24.98 -33.35 653.17 -489.14 29.17 4.19 -4.19 29.16zm-24.98 -33.35c9.21,-6.89 22.27,-5.02 29.17,4.19 6.89,9.21 5.02,22.27 -4.19,29.17l-24.98 -33.35zm61.21 116.53l-65.4 -87.37 33.35 -24.97 65.4 87.37 -4.19 29.16 -29.17 -4.19zm33.35 -24.97c6.89,9.21 5.02,22.27 -4.19,29.16 -9.21,6.89 -22.27,5.02 -29.16,-4.19l33.35 -24.97zm-682.31 485.03l653.14 -489.22 24.98 33.35 -653.14 489.22 -24.98 -33.35zm24.98 33.35c-9.2,6.89 -22.27,5.02 -29.16,-4.19 -6.89,-9.2 -5.02,-22.27 4.19,-29.16l24.98 33.35zm812.57 -608.63l-24.98 -33.35 0 0 0.58 -0.44 0.57 -0.46 0.57 -0.48 0.56 -0.49 0.5 -0.47 0.5 -0.5 0.5 -0.52 0.5 -0.55 0.46 -0.52 0.46 -0.55 0.46 -0.57 0.4 -0.53 0.41 -0.57 0.41 -0.59 0.37 -0.57 0.37 -0.61 0.38 -0.64 0.32 -0.59 0.31 -0.61 0.31 -0.64 0.3 -0.65 0.27 -0.63 0.26 -0.66 0.25 -0.66 0.23 -0.67 0.2 -0.66 0.2 -0.69 0.19 -0.7 0.16 -0.69 0.15 -0.7 0.13 -0.7 0.11 -0.73 41.24 5.94 -0.27 1.73 -0.31 1.73 -0.36 1.71 -0.4 1.71 -0.44 1.68 -0.47 1.67 -0.53 1.67 -0.56 1.64 -0.59 1.62 -0.64 1.61 -0.69 1.6 -0.71 1.56 -0.74 1.54 -0.8 1.55 -0.85 1.54 -0.84 1.45 -0.89 1.46 -0.95 1.47 -0.96 1.41 -1.01 1.41 -1.07 1.41 -1.06 1.33 -1.1 1.32 -1.15 1.31 -1.15 1.25 -1.2 1.24 -1.24 1.22 -1.3 1.21 -1.29 1.15 -1.31 1.12 -1.36 1.1 -1.39 1.07 0 0zm-181.19 83.66l156.21 -117 24.98 33.35 -156.21 117 -29.16 -4.18 4.19 -29.17zm24.98 33.35c-9.2,6.89 -22.27,5.02 -29.16,-4.19 -6.89,-9.2 -5.02,-22.27 4.19,-29.16l24.98 33.35zm-61.25 -116.5l65.43 87.34 -33.35 24.98 -65.43 -87.34 4.19 -29.17 29.16 4.19zm-33.35 24.98c-6.9,-9.2 -5.02,-22.27 4.18,-29.17 9.2,-6.9 22.27,-5.02 29.17,4.18l-33.35 24.98zm185.54 -112.93l-156.38 117.11 -24.98 -33.35 156.38 -117.11 24.98 33.35 0 0zm17.19 -47.39l0 41.67 0 0 -0.6 0.01 -0.59 0.01 -0.55 0.03 -0.63 0.04 -0.58 0.05 -0.53 0.06 -0.57 0.07 -0.56 0.09 -0.61 0.11 -0.55 0.1 -0.56 0.12 -0.54 0.12 -0.54 0.14 -0.57 0.16 -0.53 0.16 -0.58 0.19 -0.52 0.17 -0.5 0.19 -0.56 0.22 -0.5 0.2 -0.55 0.24 -0.53 0.24 -0.49 0.24 -0.52 0.27 -0.5 0.27 -0.48 0.27 -0.51 0.3 -0.51 0.31 -0.49 0.31 -0.48 0.32 -0.48 0.34 -0.47 0.35 -24.98 -33.35 1.15 -0.84 1.16 -0.82 1.18 -0.8 1.2 -0.77 1.19 -0.73 1.2 -0.71 1.25 -0.7 1.25 -0.67 1.25 -0.64 1.29 -0.63 1.27 -0.59 1.26 -0.55 1.33 -0.55 1.29 -0.5 1.35 -0.5 1.36 -0.46 1.3 -0.42 1.36 -0.41 1.33 -0.37 1.37 -0.35 1.39 -0.33 1.38 -0.3 1.39 -0.27 1.35 -0.23 1.4 -0.21 1.41 -0.19 1.44 -0.16 1.41 -0.12 1.37 -0.1 1.45 -0.07 1.41 -0.04 1.42 -0.02 0 0zm56.47 28.23l-33.32 25.02 0 0 -0.54 -0.69 -0.55 -0.67 -0.56 -0.64 -0.6 -0.65 -0.58 -0.6 -0.59 -0.57 -0.65 -0.59 -0.63 -0.54 -0.64 -0.51 -0.65 -0.5 -0.68 -0.48 -0.71 -0.48 -0.68 -0.43 -0.68 -0.4 -0.74 -0.41 -0.74 -0.39 -0.73 -0.35 -0.75 -0.34 -0.75 -0.31 -0.78 -0.3 -0.8 -0.28 -0.78 -0.24 -0.8 -0.23 -0.78 -0.2 -0.82 -0.18 -0.84 -0.16 -0.83 -0.13 -0.86 -0.11 -0.83 -0.09 -0.86 -0.06 -0.88 -0.04 -0.86 -0.01 0 -41.67 2.09 0.03 2.06 0.09 2.05 0.15 2.08 0.21 2.01 0.27 2.03 0.32 1.99 0.38 2 0.44 2 0.5 1.96 0.55 1.95 0.61 1.9 0.66 1.89 0.71 1.89 0.78 1.85 0.83 1.84 0.89 1.79 0.93 1.75 0.97 1.78 1.06 1.73 1.1 1.65 1.12 1.65 1.19 1.63 1.24 1.59 1.29 1.56 1.34 1.48 1.35 1.49 1.44 1.44 1.48 1.38 1.49 1.36 1.56 1.32 1.61 1.27 1.64 0 0zm-27.51 32.76l-5.81 -7.74 33.32 -25.02 5.81 7.74 -33.32 25.02 -0 0zm46.74 27.39l-41.24 -5.94 0 0 0.09 -0.74 0.08 -0.7 0.06 -0.7 0.04 -0.73 0.02 -0.7 0.01 -0.72 -0.01 -0.72 -0.03 -0.71 -0.04 -0.68 -0.07 -0.7 -0.08 -0.74 -0.09 -0.66 -0.11 -0.68 -0.14 -0.71 -0.15 -0.68 -0.17 -0.67 -0.18 -0.67 -0.2 -0.68 -0.22 -0.69 -0.23 -0.65 -0.24 -0.64 -0.27 -0.65 -0.28 -0.65 -0.3 -0.65 -0.31 -0.64 -0.32 -0.61 -0.36 -0.64 -0.37 -0.62 -0.38 -0.61 -0.39 -0.6 -0.42 -0.6 -0.43 -0.59 33.31 -25.02 1.04 1.41 1 1.44 0.96 1.46 0.93 1.49 0.88 1.49 0.84 1.5 0.82 1.56 0.76 1.55 0.73 1.56 0.69 1.57 0.65 1.6 0.62 1.64 0.57 1.64 0.52 1.62 0.49 1.65 0.45 1.68 0.41 1.68 0.37 1.69 0.32 1.67 0.29 1.71 0.24 1.75 0.19 1.68 0.16 1.72 0.11 1.76 0.07 1.72 0.03 1.73 -0.01 1.73 -0.06 1.76 -0.1 1.72 -0.14 1.76 -0.19 1.75 -0.23 1.72 0 0zm0 0c-1.64,11.39 -12.2,19.28 -23.59,17.65 -11.39,-1.64 -19.28,-12.2 -17.65,-23.59l41.24 5.94zm-375.66 -72.35l-0.08 0 0 -41.67 0.08 0 0 0 0 41.67zm0 -41.67c11.5,0 20.83,9.33 20.83,20.83 0,11.5 -9.33,20.83 -20.83,20.83l0 -41.67zm-16.51 9.78l36.54 20.02 -0.01 0.02 -0.44 0.75 -0.2 0.33 -0.31 0.48 -0.8 1.14 -0.56 0.71 -0.29 0.35 -0.31 0.35 -0.35 0.39 -0.95 0.97 -0.37 0.35 -0.39 0.35 -1.02 0.85 -0.44 0.33 -0.46 0.33 -1.06 0.7 -0.51 0.31 -0.53 0.3 -0.32 0.17 -0.79 0.4 -1.08 0.49 -0.59 0.24 -0.81 0.3 -0.62 0.2 -0.23 0.07 -1.34 0.36 -0.52 0.11 -0.76 0.15 -1.33 0.19 0 0 -0.67 0.07 -1.3 0.07 -0.67 0.01 0 -41.67 -0.52 0.01 -1.17 0.07 -0.54 0.06 0.13 -0.02 -1.19 0.17 -0.64 0.12 -0.38 0.09 -1.2 0.32 -0.11 0.03 -0.5 0.17 -0.69 0.25 -0.48 0.19 -0.96 0.43 -0.67 0.34 -0.2 0.11 -0.42 0.24 -0.39 0.24 -0.94 0.63 -0.36 0.26 -0.33 0.26 -0.92 0.76 -0.3 0.26 -0.27 0.26 -0.85 0.87 -0.26 0.29 -0.22 0.26 -0.2 0.24 -0.47 0.61 -0.72 1.02 -0.24 0.37 -0.13 0.21 -0.37 0.63 -0.01 0.02zm0.01 -0.02c5.54,-10.09 18.2,-13.78 28.29,-8.24 10.09,5.54 13.78,18.2 8.24,28.29l-36.53 -20.05zm73.78 -47.96l-37.24 68 -36.54 -20.02 37.24 -68 8.28 -8.27 28.26 28.29zm-36.54 -20.02c5.52,-10.09 18.19,-13.79 28.28,-8.26 10.09,5.52 13.79,18.19 8.26,28.28l-36.54 -20.02zm96.16 -8.83l-67.89 37.12 -19.98 -36.56 67.89 -37.12 0.01 -0 19.98 36.56zm-19.98 -36.56c10.09,-5.52 22.76,-1.81 28.27,8.29 5.52,10.09 1.81,22.76 -8.29,28.27l-19.98 -36.56zm-9.78 16.53l41.67 0 0 0 -0.01 0.66 -0.07 1.26 -0.07 0.72 -0.09 0.67 -0.11 0.66 -0.15 0.77 -0.18 0.79 -0.13 0.49 -0.35 1.17 -0.28 0.79 -0.1 0.27 -0.34 0.82 -0.51 1.09 -0.28 0.55 -0.03 0.06 -0.44 0.79 -0.77 1.22 -0.33 0.47 -0.25 0.35 -0.57 0.74 -0.35 0.42 -0.61 0.7 -0.65 0.67 -0.35 0.34 -0.68 0.62 -0.4 0.34 -0.72 0.59 -0.74 0.55 -0.47 0.33 -0.76 0.5 -0.33 0.2 -0.79 0.46 -19.97 -36.57 -0.67 0.39 -0.21 0.13 -0.65 0.43 -0.36 0.25 -0.63 0.47 -0.61 0.5 -0.3 0.26 -0.57 0.53 -0.26 0.25 -0.55 0.58 -0.53 0.6 -0.26 0.31 -0.5 0.64 -0.17 0.24 -0.25 0.36 -0.7 1.11 -0.38 0.67 0.03 -0.06 -0.22 0.43 -0.45 0.97 -0.29 0.7 -0.06 0.14 -0.23 0.67 -0.31 1.04 -0.1 0.37 -0.15 0.67 -0.13 0.63 -0.08 0.52 -0.07 0.53 -0.06 0.59 -0.06 1.11 -0.01 0.53 0 0zm0 0c0,-11.5 9.33,-20.83 20.83,-20.83 11.5,0 20.83,9.33 20.83,20.83l-41.67 0zm9.76 16.51l20.03 -36.54 -0.08 -0.04 0.84 0.48 0.06 0.04 0.76 0.47 1.04 0.72 0.44 0.33 0.43 0.34 1 0.86 0.67 0.65 0.05 0.05 0.65 0.67 0.61 0.7 0.59 0.72 0.33 0.44 0.04 0.05 0.72 1.04 0.58 0.94 0.3 0.53 0.43 0.81 0.38 0.8 0.13 0.29 0.15 0.36 0.44 1.15 0.32 0.99 0.02 0.07 0.33 1.2 0.17 0.78 0.13 0.65 0.18 1.26 0.01 0.07 0.07 0.72 0.07 1.26 0.01 0.66 -41.67 0 0.01 0.53 0.06 1.11 0.06 0.59 -0.01 -0.07 0.17 1.12 0.09 0.51 0.15 0.64 0.29 1.07 -0.02 -0.07 0.28 0.86 0.4 1.03 0.1 0.23 0.07 0.16 0.33 0.68 0.36 0.69 0.24 0.42 0.51 0.82 0.65 0.93 -0.04 -0.05 0.26 0.33 0.5 0.61 0.53 0.6 0.55 0.58 -0.05 -0.05 0.58 0.55 0.89 0.78 0.31 0.25 0.34 0.26 0.93 0.65 0.64 0.4 -0.06 -0.04 0.72 0.41 -0.08 -0.04zm0.08 0.04c-10.11,-5.48 -13.86,-18.14 -8.37,-28.25 5.48,-10.11 18.14,-13.86 28.25,-8.37l-19.87 36.62zm-47.94 -73.8l67.9 37.22 -20.03 36.54 -67.9 -37.22 -8.25 -8.25 28.28 -28.28zm-20.03 36.54c-10.09,-5.53 -13.78,-18.2 -8.25,-28.28 5.53,-10.09 18.2,-13.78 28.28,-8.25l-20.03 36.54zm-8.96 -96.2l37.24 67.92 -36.54 20.03 -37.24 -67.92 36.52 -20.06 0.02 0.03zm-36.54 20.03c-5.53,-10.09 -1.83,-22.75 8.25,-28.28 10.09,-5.53 22.75,-1.83 28.28,8.25l-36.54 20.03zm16.57 9.78l0 -41.67 0.69 0.01 0.6 0.03 0.73 0.05 1.3 0.16 0.07 0.01 0.78 0.13 1.28 0.28 0.06 0.02 0.65 0.17 1.39 0.44 0.61 0.23 0.06 0.02 0.82 0.34 0.83 0.38 0.57 0.28 0.55 0.3 0.8 0.46 0.8 0.51 0.48 0.33 0.47 0.33 0.67 0.51 0.43 0.35 0.73 0.64 0.7 0.67 0.35 0.37 0.64 0.7 0.04 0.05 0.61 0.72 0.57 0.74 0.33 0.46 0.52 0.78 0.48 0.78 0.31 0.55 -36.5 20.09 0.24 0.43 0.41 0.67 0.45 0.67 0.26 0.36 0.5 0.63 0.52 0.63 -0.04 -0.05 0.56 0.6 0.26 0.27 0.61 0.58 0.63 0.55 0.33 0.28 0.56 0.43 0.36 0.26 0.38 0.26 0.69 0.44 0.69 0.4 0.43 0.23 0.46 0.23 0.71 0.33 0.7 0.29 -0.06 -0.02 0.49 0.18 1.26 0.4 0.53 0.14 -0.06 -0.02 1.15 0.25 0.65 0.11 -0.07 -0.01 1.17 0.14 0.59 0.04 0.46 0.02 0.69 0.01zm-0.69 -0.01c-11.5,-0.38 -20.51,-10.02 -20.13,-21.52 0.38,-11.5 10.02,-20.51 21.52,-20.13l-1.39 41.65zm0.61 -41.66l0.08 0 0 41.67 -0.08 0 0 0 0 -41.67zm0 41.67c-11.5,0 -20.83,-9.33 -20.83,-20.83 0,-11.5 9.33,-20.83 20.83,-20.83l0 41.67zm16.54 -9.81l-36.57 -19.95 0.01 -0.02 0.19 -0.34 0.74 -1.2 0.51 -0.75 0.25 -0.35 0.57 -0.74 0.35 -0.42 0.31 -0.36 0.64 -0.7 0.66 -0.66 0.37 -0.35 0.39 -0.35 1.02 -0.85 0.44 -0.33 0.46 -0.33 1.06 -0.7 0.51 -0.31 0.53 -0.3 0.32 -0.17 0.55 -0.28 1.32 -0.61 0.6 -0.24 0.61 -0.23 0.99 -0.32 0.07 -0.02 1.06 -0.3 0.79 -0.18 0.77 -0.15 1.26 -0.18 0.07 -0.01 0.67 -0.07 1.28 -0.07 0.68 -0.01 0 41.67 0.55 -0.01 1.15 -0.07 0.54 -0.06 -0.07 0.01 1.12 -0.17 0.63 -0.12 0.67 -0.15 0.93 -0.26 -0.07 0.02 0.86 -0.28 0.49 -0.18 0.47 -0.19 1.2 -0.55 0.43 -0.22 0.2 -0.11 0.42 -0.24 0.39 -0.24 0.94 -0.63 0.36 -0.26 0.33 -0.26 0.92 -0.76 0.3 -0.26 0.27 -0.26 0.56 -0.57 0.56 -0.6 0.22 -0.26 0.26 -0.31 0.5 -0.64 0.17 -0.24 0.43 -0.64 0.67 -1.09 0.12 -0.22 0.01 -0.02zm-0.01 0.02c-5.52,10.09 -18.18,13.8 -28.27,8.29 -10.09,-5.52 -13.8,-18.18 -8.29,-28.27l36.56 19.98zm-73.62 47.96l37.06 -67.93 36.57 19.95 -37.06 67.93 -8.28 8.3 -28.3 -28.25zm36.57 19.95c-5.51,10.1 -18.17,13.82 -28.26,8.31 -10.1,-5.51 -13.82,-18.17 -8.31,-28.26l36.57 19.95zm-96.28 8.98l67.99 -37.23 20.02 36.54 -67.99 37.23 -20.06 -36.52 0.04 -0.02zm20.02 36.54c-10.09,5.52 -22.76,1.83 -28.28,-8.26 -5.52,-10.09 -1.83,-22.76 8.26,-28.28l20.02 36.54zm9.78 -16.54l-41.67 0 0 0 0.01 -0.68 0.07 -1.28 0.07 -0.67 0.1 -0.76 0.11 -0.67 0.13 -0.66 0.18 -0.79 0.17 -0.65 0.37 -1.19 0.22 -0.61 0.32 -0.8 0.36 -0.81 0.03 -0.06 0.27 -0.56 0.54 -1.02 0.46 -0.78 0.21 -0.33 0.52 -0.78 0.33 -0.46 0.57 -0.74 0.61 -0.72 0.35 -0.39 0.65 -0.67 0.05 -0.05 0.67 -0.65 1.07 -0.92 0.05 -0.04 0.74 -0.58 0.76 -0.54 0.06 -0.04 1.22 -0.77 0.55 -0.31 20.09 36.5 0.43 -0.24 1.11 -0.7 -0.06 0.04 0.65 -0.46 0.64 -0.49 -0.05 0.04 0.96 -0.83 0.58 -0.55 -0.05 0.05 0.55 -0.58 0.26 -0.29 0.52 -0.63 0.5 -0.63 0.26 -0.36 0.45 -0.67 0.14 -0.22 0.39 -0.66 0.48 -0.9 0.22 -0.44 -0.03 0.06 0.31 -0.7 0.27 -0.68 0.17 -0.48 0.33 -1.07 0.14 -0.53 0.15 -0.67 0.11 -0.53 0.09 -0.54 0.08 -0.62 0.06 -0.54 0.07 -1.15 0.01 -0.55 0 0zm0 0c0,11.5 -9.33,20.83 -20.83,20.83 -11.5,0 -20.83,-9.33 -20.83,-20.83l41.67 0zm-9.81 -16.5l-19.96 36.57 -0.04 -0.02 -0.76 -0.44 -0.49 -0.3 -0.74 -0.49 -0.73 -0.52 -0.72 -0.56 -0.35 -0.29 -0.4 -0.34 -0.68 -0.62 -0.95 -0.97 -0.61 -0.7 -0.04 -0.05 -0.59 -0.72 -0.55 -0.74 -0.33 -0.47 -0.5 -0.76 -0.2 -0.33 -0.56 -0.97 -0.4 -0.79 -0.03 -0.06 -0.49 -1.08 -0.32 -0.8 -0.28 -0.79 -0.19 -0.61 -0.18 -0.63 -0.2 -0.78 -0.14 -0.64 -0.22 -1.24 -0.09 -0.73 -0.01 -0.07 -0.06 -0.6 -0.07 -1.3 -0.01 -0.67 41.67 0 -0.01 -0.52 -0.07 -1.17 -0.05 -0.47 0.01 0.07 -0.08 -0.6 -0.19 -1.1 -0.11 -0.5 -0.17 -0.64 -0.14 -0.5 -0.15 -0.48 -0.23 -0.67 -0.27 -0.68 -0.43 -0.96 0.03 0.06 -0.34 -0.67 -0.48 -0.85 -0.13 -0.21 -0.43 -0.65 -0.25 -0.36 -0.47 -0.63 -0.5 -0.61 0.04 0.05 -0.53 -0.6 -0.85 -0.87 -0.57 -0.53 -0.3 -0.26 -0.24 -0.2 -0.61 -0.47 -0.62 -0.44 -0.62 -0.41 -0.37 -0.23 -0.64 -0.37 -0.04 -0.02zm0.04 0.02c10.09,5.53 13.78,18.2 8.25,28.28 -5.53,10.09 -18.2,13.78 -28.28,8.25l20.03 -36.54zm47.98 73.66l-67.98 -37.11 19.96 -36.57 67.98 37.11 8.31 8.31 -28.27 28.26zm19.96 -36.57c10.1,5.51 13.82,18.17 8.31,28.27 -5.51,10.1 -18.17,13.82 -28.27,8.31l19.96 -36.57zm8.8 96.24l-37.07 -67.98 36.58 -19.94 37.07 67.98 0 0 -36.59 19.94zm36.58 -19.94c5.5,10.1 1.78,22.76 -8.32,28.26 -10.1,5.5 -22.76,1.78 -28.26,-8.32l36.58 -19.94zm-16.61 -9.82l0 41.67 -0.7 -0.02 -0.62 -0.03 -0.75 -0.06 -1.24 -0.15 -0.67 -0.11 -0.17 -0.03 -0.68 -0.14 -1.42 -0.36 -0.65 -0.2 -0.06 -0.02 -1.4 -0.5 -0.61 -0.26 -0.06 -0.02 -0.83 -0.38 -0.57 -0.28 -1.3 -0.73 -0.8 -0.51 0.24 0.15 -0.35 -0.22 -0.79 -0.55 -1.16 -0.91 -0.73 -0.64 -0.05 -0.04 -0.7 -0.67 -0.35 -0.37 -0.37 -0.38 -0.63 -0.73 -0.3 -0.36 -0.87 -1.15 -0.33 -0.49 -0.22 -0.34 -0.48 -0.79 -0.35 -0.62 36.59 -19.94 -0.29 -0.51 -0.41 -0.67 -0.15 -0.24 -0.26 -0.38 -0.79 -1.05 -0.21 -0.26 -0.56 -0.63 -0.27 -0.29 -0.26 -0.27 -0.61 -0.58 0.05 0.04 -0.63 -0.55 -1.06 -0.83 -0.69 -0.48 -0.24 -0.15 0.35 0.22 -0.69 -0.44 -1.18 -0.67 -0.46 -0.23 -0.71 -0.33 0.06 0.02 -0.49 -0.2 -1.28 -0.46 0.06 0.02 -0.53 -0.16 -1.29 -0.33 -0.55 -0.11 -0.05 -0.01 -0.54 -0.09 -1.11 -0.13 -0.62 -0.05 -0.49 -0.02 -0.7 -0.02zm0.7 0.02c11.5,0.39 20.5,10.03 20.11,21.52 -0.39,11.5 -10.03,20.5 -21.52,20.11l1.41 -41.64zm-54.5 -133.61l36.57 19.96 0.04 -0.07 -0.18 0.33 -0.51 0.86 0.18 -0.29 -0.02 0.03 -0.55 0.87 -0.02 0.03 -0.56 0.8 -0.44 0.58 -0.02 0.03 -0.02 0.03 -0.02 0.03 -0.59 0.72 -0.02 0.03 -0.54 0.6 -0.02 0.02 -0.6 0.63 -0.63 0.6 0.58 -0.55 -0.58 0.56 -1.33 1.14 -0.03 0.02 0.66 -0.54 -0.72 0.59 -0.03 0.02 -0.03 0.02 -1.34 0.97 -0.54 0.35 0.48 -0.31 -0.03 0.02 -0.54 0.35 -0.86 0.51 -0.25 0.14 -19.98 -36.56 -0.19 0.11 -0.8 0.47 -0.48 0.31 0.03 -0.02 0.54 -0.35 -0.48 0.31 -1.29 0.93 0.03 -0.02 0.03 -0.02 -0.66 0.54 0.72 -0.59 0.03 -0.02 -1.28 1.09 -0.53 0.51 0.63 -0.6 -0.57 0.55 -0.55 0.57 0.02 -0.02 -0.49 0.54 0.02 -0.03 -0.54 0.66 0.02 -0.03 0.02 -0.03 0.02 -0.03 -0.39 0.52 -0.52 0.73 0.02 -0.03 -0.51 0.81 0.02 -0.03 0.22 -0.35 -0.47 0.8 -0.15 0.27 0.04 -0.07zm72.16 -45.24l-35.58 65.2 -36.57 -19.96 35.58 -65.2 36.55 -0.04 0.02 20zm-36.57 -19.96c5.51,-10.1 18.17,-13.82 28.27,-8.31 10.1,5.51 13.82,18.17 8.31,28.27l-36.57 -19.96zm35.8 85.2l-35.78 -65.2 36.53 -20.04 35.78 65.2 0.02 0.03 -36.54 20.01zm29.08 -27.49l-20.03 36.54 -0.05 -0.03 -0.18 -0.1 -0.03 -0.02 -0.86 -0.51 -0.54 -0.35 -0.03 -0.02 -0.03 -0.02 -0.79 -0.56 -0.03 -0.02 -0.58 -0.44 -0.72 -0.59 -0.03 -0.02 -0.03 -0.02 -0.03 -0.02 -0.6 -0.54 -0.63 -0.6 -0.02 -0.02 -0.03 -0.03 -0.6 -0.63 -0.54 -0.6 -0.02 -0.03 0.49 0.54 -1.1 -1.28 -0.44 -0.58 0.39 0.52 -0.59 -0.79 -0.4 -0.58 -0.35 -0.55 0.31 0.48 -0.02 -0.03 -0.35 -0.55 -0.51 -0.86 -0.14 -0.25 36.56 -19.98 -0.11 -0.19 -0.47 -0.8 -0.31 -0.48 0.02 0.03 0.35 0.55 -0.31 -0.48 -0.36 -0.53 -0.55 -0.73 0.44 0.58 -0.4 -0.52 -1.05 -1.24 0.54 0.6 0.02 0.03 -0.49 -0.54 -0.55 -0.58 0.03 0.03 0.02 0.02 -0.58 -0.55 -0.54 -0.49 0.03 0.02 0.03 0.02 0.03 0.02 -0.66 -0.54 -0.52 -0.4 0.03 0.02 -0.74 -0.52 0.03 0.02 0.03 0.02 -0.48 -0.31 -0.8 -0.47 0.03 0.02 -0.12 -0.06 -0.05 -0.03zm45.13 72.27l-65.16 -35.73 20.03 -36.54 65.16 35.73 -0.02 36.54 -20.01 -0.01zm20.03 -36.54c10.09,5.53 13.78,18.2 8.25,28.28 -5.53,10.09 -18.2,13.78 -28.28,8.25l20.03 -36.54zm-85.17 35.63l65.16 -35.64 19.99 36.55 -65.16 35.64 -20.06 -36.52 0.07 -0.04zm27.47 29.09l-36.54 -20.02 0.03 -0.05 0.1 -0.18 0.02 -0.03 0.51 -0.86 0.35 -0.55 0.02 -0.03 0.02 -0.03 0.56 -0.79 0.02 -0.03 0.44 -0.58 0.02 -0.03 0.02 -0.03 0.59 -0.72 0.02 -0.03 0.54 -0.6 0.02 -0.02 0.6 -0.63 0.63 -0.6 0.02 -0.02 0.6 -0.54 -0.54 0.49 0.02 -0.02 0.6 -0.54 0.72 -0.59 0.58 -0.44 0.03 -0.02 0.79 -0.56 0.03 -0.02 0.03 -0.02 0.54 -0.35 0.86 -0.51 0.03 -0.02 0.18 -0.1 20.13 36.48 0.12 -0.06 -0.03 0.02 0.8 -0.47 0.48 -0.31 -0.03 0.02 -0.03 0.02 0.74 -0.52 -0.03 0.02 0.52 -0.4 0.66 -0.54 0.54 -0.49 -0.02 0.02 -0.6 0.54 0.54 -0.49 -0.02 0.02 0.57 -0.55 0.55 -0.57 -0.02 0.02 0.49 -0.54 -0.02 0.03 0.54 -0.66 -0.02 0.03 -0.02 0.03 0.4 -0.52 -0.02 0.03 0.52 -0.74 -0.02 0.03 -0.02 0.03 0.31 -0.48 0.47 -0.8 -0.02 0.03 0.06 -0.12 0.03 -0.05zm-72.31 45.26l35.78 -65.29 36.54 20.02 -35.78 65.29 -36.56 -0.04 0.02 -19.98zm36.54 20.02c-5.53,10.09 -18.19,13.78 -28.28,8.26 -10.09,-5.53 -13.78,-18.19 -8.26,-28.28l36.54 20.02zm-35.56 -85.27l35.59 65.28 -36.58 19.94 -35.59 -65.28 36.56 -20 0.03 0.05zm-29.04 27.47l19.95 -36.58 -0.05 -0.02 0.82 0.47 0.03 0.02 0.03 0.02 0.87 0.55 0.03 0.02 1.34 0.97 0.03 0.02 0.03 0.02 0.03 0.02 0.03 0.02 0.72 0.59 0.03 0.02 0.6 0.54 1.2 1.2 -0.55 -0.57 0.03 0.02 0.6 0.63 0.02 0.02 0.54 0.6 0.59 0.72 0.02 0.03 -0.54 -0.66 0.59 0.72 0.59 0.79 0.4 0.58 0.02 0.03 0.02 0.03 0.02 0.03 0.55 0.87 0.02 0.03 0.02 0.03 0.42 0.72 -36.53 20.05 0.39 0.66 -0.02 -0.03 -0.02 -0.03 0.51 0.81 -0.02 -0.03 -0.02 -0.03 -0.02 -0.03 0.36 0.53 0.55 0.73 0.54 0.66 -0.59 -0.72 -0.02 -0.03 0.54 0.66 0.49 0.54 -0.02 -0.02 0.55 0.57 -0.03 -0.02 -0.6 -0.63 1.15 1.15 0.54 0.49 -0.03 -0.02 0.66 0.54 -0.03 -0.02 -0.03 -0.02 -0.03 -0.02 -0.03 -0.02 1.29 0.93 -0.03 -0.02 0.81 0.51 -0.03 -0.02 -0.03 -0.02 0.76 0.44 -0.05 -0.02zm-45.34 -72.19l65.3 35.61 -19.95 36.58 -65.3 -35.61 -0.04 -36.56 19.99 -0.02zm-19.95 36.58c-10.1,-5.51 -13.82,-18.17 -8.31,-28.27 5.51,-10.1 18.17,-13.82 28.27,-8.31l-19.95 36.58zm85.27 -35.8l-65.28 35.78 -20.02 -36.54 65.28 -35.78 0.02 -0.01 20 36.55zm-20.02 -36.54c10.09,-5.53 22.75,-1.83 28.28,8.26 5.53,10.09 1.83,22.75 -8.26,28.28l-20.02 -36.54zm-364.91 259.27l-98.09 -53.7 20.01 -36.54 98.09 53.7 8.28 8.28 -28.28 28.27zm20.01 -36.54c10.09,5.52 13.79,18.19 8.27,28.28 -5.52,10.09 -18.19,13.79 -28.28,8.27l20.01 -36.54zm25.39 126.44l-53.68 -98.17 36.56 -19.99 53.68 98.17 0 0.01 -36.56 19.98zm20.03 -29.79l0 41.67 0 0 -0.66 -0.01 -1.26 -0.07 -0.72 -0.07 -0.14 -0.02 -0.68 -0.09 -1.15 -0.2 -0.78 -0.17 -0.8 -0.21 -0.63 -0.19 -0.62 -0.2 -1.13 -0.43 -0.28 -0.11 -0.81 -0.36 -1.05 -0.53 -0.06 -0.03 -0.79 -0.44 -0.78 -0.48 -0.78 -0.52 -0.46 -0.33 -0.06 -0.04 -1.11 -0.88 -0.7 -0.62 -0.35 -0.33 -0.37 -0.35 -0.65 -0.67 -0.61 -0.7 -0.59 -0.72 -0.55 -0.74 -0.33 -0.47 -0.5 -0.76 -0.2 -0.33 -0.46 -0.79 36.57 -19.97 -0.39 -0.67 -0.13 -0.21 -0.43 -0.65 -0.25 -0.36 -0.47 -0.63 -0.5 -0.61 -0.53 -0.6 -0.55 -0.58 -0.27 -0.26 -0.26 -0.25 -0.6 -0.52 -1 -0.8 0.06 0.04 -0.36 -0.26 -0.67 -0.45 -0.67 -0.41 -0.67 -0.38 0.06 0.03 -0.93 -0.46 -0.7 -0.31 -0.15 -0.06 -1.01 -0.38 -0.5 -0.17 -0.51 -0.15 -0.67 -0.18 -0.64 -0.14 -1.01 -0.18 -0.55 -0.07 -0.01 0 -0.59 -0.06 -1.11 -0.06 -0.53 -0.01 0 0zm-16.53 9.78l36.56 19.98 -0.02 0.04 -0.43 0.74 -0.2 0.33 -0.5 0.76 -0.33 0.47 -0.55 0.74 -0.59 0.72 -0.61 0.7 -0.65 0.67 -0.05 0.05 -0.67 0.65 -0.7 0.61 -0.35 0.29 -0.43 0.34 -0.85 0.63 -1.06 0.7 -0.06 0.04 -0.51 0.31 -0.79 0.44 -0.55 0.28 -1.32 0.61 -0.8 0.32 -0.06 0.02 -0.61 0.22 -1.19 0.37 -0.8 0.21 -0.78 0.17 -0.54 0.1 -0.67 0.11 -0.76 0.1 -0.72 0.07 -1.26 0.07 -0.66 0.01 0 -41.67 -0.53 0.01 -1.11 0.06 -0.59 0.06 -0.62 0.08 -0.54 0.09 -0.41 0.08 -0.64 0.14 -0.67 0.18 -1.07 0.33 -0.48 0.17 0.06 -0.02 -0.68 0.27 -1.2 0.55 -0.43 0.22 -0.67 0.38 -0.4 0.24 0.06 -0.04 -0.94 0.63 -0.75 0.55 -0.31 0.25 -0.24 0.2 -0.6 0.53 -0.58 0.55 0.05 -0.05 -0.55 0.58 -0.53 0.6 -0.5 0.61 -0.47 0.63 -0.25 0.36 -0.43 0.65 -0.13 0.21 -0.36 0.63 -0.02 0.04zm90.22 -78.17l-53.66 98.15 -36.56 -19.98 53.66 -98.15 8.28 -8.29 28.28 28.27zm-36.56 -19.98c5.52,-10.09 18.18,-13.8 28.27,-8.29 10.09,5.52 13.8,18.18 8.29,28.27l-36.56 -19.98zm126.45 -25.41l-98.18 53.68 -19.99 -36.56 98.18 -53.68 0.01 -0 19.98 36.56zm-29.79 -20.03l41.67 0 0 0 -0.01 0.66 -0.07 1.26 -0.07 0.72 -0.02 0.14 -0.09 0.68 -0.2 1.15 -0.17 0.78 -0.21 0.8 -0.19 0.63 -0.2 0.62 -0.43 1.13 -0.11 0.28 -0.36 0.81 -0.53 1.05 -0.17 0.32 -0.3 0.53 -0.31 0.51 -0.7 1.06 -0.33 0.46 -0.04 0.06 -0.88 1.11 -0.62 0.7 -0.33 0.35 -0.35 0.37 -0.67 0.65 -0.7 0.61 -0.72 0.59 -0.74 0.55 -0.47 0.33 -0.76 0.5 -0.33 0.2 -0.79 0.46 -19.97 -36.57 -0.67 0.39 -0.21 0.13 -0.65 0.43 -0.36 0.25 -0.63 0.47 -0.61 0.5 -0.6 0.53 -0.58 0.55 -0.26 0.27 -0.25 0.26 -0.52 0.6 -0.8 1 0.04 -0.06 -0.26 0.36 -0.63 0.94 -0.24 0.39 -0.24 0.42 -0.11 0.2 -0.46 0.93 -0.31 0.7 -0.06 0.15 -0.38 1.01 -0.17 0.5 -0.15 0.51 -0.18 0.67 -0.14 0.64 -0.18 1.01 -0.07 0.55 0 0.01 -0.06 0.59 -0.06 1.11 -0.01 0.53 0 0zm9.79 16.53l19.98 -36.56 0 0 0.34 0.19 1.2 0.74 0.75 0.51 0.35 0.25 0.44 0.33 0.72 0.59 0.7 0.61 0.37 0.35 0.66 0.66 0.33 0.35 0.32 0.35 0.65 0.76 0.57 0.74 0.54 0.76 0.32 0.49 0.21 0.33 0.46 0.78 0.29 0.53 0.28 0.55 0.61 1.32 0.32 0.8 0.02 0.06 0.22 0.61 0.37 1.19 0.21 0.8 0.17 0.78 0.1 0.54 0.11 0.67 0.1 0.76 0.07 0.72 0.07 1.26 0.01 0.66 -41.67 0 0.01 0.53 0.06 1.11 0.06 0.59 0.08 0.62 0.09 0.54 0.08 0.41 0.14 0.64 0.18 0.67 0.33 1.07 0.17 0.48 -0.02 -0.06 0.27 0.68 0.55 1.2 0.22 0.43 0.22 0.41 0.39 0.66 0.14 0.22 0.25 0.38 0.46 0.65 0.5 0.64 0.56 0.66 0.22 0.25 0.25 0.26 0.56 0.57 0.27 0.26 0.6 0.53 0.61 0.5 0.34 0.26 0.24 0.17 0.64 0.43 1.09 0.67 0.22 0.12 0 0zm-78.2 -90.22l98.19 53.66 -19.98 36.56 -98.19 -53.66 -8.29 -8.3 28.28 -28.26zm-19.98 36.56c-10.09,-5.52 -13.8,-18.18 -8.29,-28.27 5.52,-10.09 18.18,-13.8 28.27,-8.29l-19.98 36.56zm-25.34 -126.47l53.62 98.2 -36.57 19.97 -53.62 -98.2 36.56 -19.98 0 0.01zm-20.03 29.77l0 -41.67 0 0 0.68 0.01 1.28 0.07 0.67 0.07 0.67 0.09 0.66 0.11 0.77 0.15 0.65 0.15 0.64 0.17 0.8 0.23 1.17 0.4 0.8 0.32 0.29 0.12 0.85 0.39 0.79 0.4 0.31 0.17 0.53 0.3 1.22 0.77 0.06 0.04 0.76 0.54 1.11 0.88 0.05 0.04 0.36 0.31 0.7 0.64 0.66 0.66 0.62 0.68 0.34 0.4 0.35 0.42 0.57 0.74 0.25 0.35 0.51 0.75 0.74 1.2 0.19 0.34 -36.56 19.98 0.12 0.22 0.67 1.09 0.43 0.64 0.17 0.24 0.5 0.64 0.26 0.31 0.26 0.3 0.53 0.57 0.57 0.56 0.6 0.56 0.26 0.22 -0.05 -0.04 1 0.8 0.65 0.46 -0.06 -0.04 1.11 0.7 0.41 0.24 0.2 0.11 0.67 0.34 0.73 0.33 0.17 0.07 0.68 0.27 1.04 0.36 0.67 0.19 0.5 0.13 0.52 0.11 0.63 0.13 0.52 0.08 0.53 0.07 0.54 0.06 1.15 0.07 0.55 0.01 0 0zm16.53 -9.8l-36.56 -19.99 0.02 -0.04 0.31 -0.56 0.77 -1.22 0.33 -0.47 0.04 -0.06 0.55 -0.74 0.85 -1.02 0.35 -0.39 0.35 -0.37 0.66 -0.66 0.7 -0.64 0.36 -0.31 0.72 -0.59 0.44 -0.33 0.76 -0.54 0.77 -0.5 0.51 -0.31 0.53 -0.3 0.31 -0.17 0.79 -0.4 1.08 -0.49 0.6 -0.24 0.61 -0.23 0.99 -0.32 0.07 -0.02 1.2 -0.33 0.65 -0.14 0.66 -0.13 1.36 -0.2 0.07 -0.01 0.67 -0.07 1.28 -0.07 0.68 -0.01 0 41.67 0.55 -0.01 1.15 -0.07 0.54 -0.06 -0.07 0.01 1.23 -0.19 0.53 -0.1 0.52 -0.12 1.07 -0.29 -0.07 0.02 0.86 -0.28 0.49 -0.18 0.47 -0.19 0.96 -0.43 0.67 -0.34 0.2 -0.11 0.41 -0.24 0.4 -0.24 0.65 -0.43 0.65 -0.46 0.33 -0.26 0.61 -0.5 0.26 -0.22 0.6 -0.56 0.57 -0.56 0.26 -0.27 0.26 -0.3 0.76 -0.92 0.47 -0.63 -0.04 0.06 0.25 -0.36 0.7 -1.11 0.25 -0.44 0.02 -0.04zm-90.24 78.18l53.68 -98.17 36.56 19.99 -53.68 98.17 -8.28 8.28 -28.28 -28.27zm36.56 19.99c-5.52,10.09 -18.18,13.8 -28.28,8.28 -10.09,-5.52 -13.8,-18.18 -8.28,-28.28l36.56 19.99zm-126.37 25.39l98.09 -53.66 20 36.55 -98.09 53.66 -0.03 0.02 -19.97 -36.57zm29.79 20.06l-41.67 0 0 0 0.01 -0.67 0.07 -1.25 0.07 -0.66 0.02 -0.13 0.09 -0.67 0.22 -1.24 0.14 -0.64 0.2 -0.78 0.23 -0.8 0.2 -0.62 0.22 -0.61 0.23 -0.59 0.34 -0.8 0.38 -0.8 0.28 -0.55 0.44 -0.79 0.48 -0.78 0.32 -0.49 0.33 -0.47 0.25 -0.35 0.88 -1.11 0.62 -0.7 0.04 -0.05 0.95 -0.97 0.68 -0.62 0.05 -0.05 1.06 -0.89 0.74 -0.55 0.34 -0.24 0.74 -0.49 0.49 -0.3 0.81 -0.46 19.94 36.58 0.69 -0.39 0.37 -0.23 0.62 -0.41 0.23 -0.16 0.63 -0.47 0.96 -0.8 -0.05 0.05 0.57 -0.53 0.85 -0.87 -0.04 0.05 0.52 -0.6 0.8 -1 0.17 -0.24 0.25 -0.36 0.25 -0.38 0.41 -0.67 0.38 -0.67 0.22 -0.43 0.33 -0.68 0.28 -0.67 0.19 -0.46 0.17 -0.48 0.17 -0.5 0.19 -0.67 0.17 -0.64 0.11 -0.5 0.19 -1.1 0.07 -0.53 0 0 0.05 -0.52 0.06 -1.12 0.01 -0.52 0 0zm-9.8 -16.52l-20.01 36.54 -0.02 -0.01 -0.75 -0.44 -0.33 -0.2 -0.76 -0.5 -0.86 -0.61 -0.72 -0.56 -0.35 -0.29 -0.36 -0.31 -0.7 -0.64 -0.96 -0.98 -0.35 -0.39 -0.04 -0.05 -0.85 -1.02 -0.63 -0.86 -0.33 -0.48 -0.4 -0.62 -0.31 -0.51 -0.3 -0.53 -0.43 -0.81 -0.27 -0.56 -0.36 -0.81 -0.44 -1.15 -0.02 -0.06 -0.33 -0.99 -0.33 -1.2 -0.02 -0.06 -0.15 -0.65 -0.13 -0.66 -0.2 -1.36 -0.07 -0.67 -0.01 -0.12 -0.07 -1.26 -0.01 -0.66 41.67 0 -0.01 -0.53 -0.06 -1.11 0 0.02 -0.06 -0.54 -0.18 -1.23 -0.11 -0.53 -0.11 -0.52 0.02 0.06 -0.3 -1.07 -0.28 -0.86 0.02 0.06 -0.4 -1.02 -0.31 -0.7 -0.22 -0.44 -0.36 -0.69 -0.24 -0.42 -0.24 -0.39 -0.33 -0.51 -0.26 -0.38 -0.55 -0.75 -0.76 -0.92 0.04 0.05 -0.26 -0.29 -0.87 -0.89 -0.6 -0.56 -0.26 -0.22 -0.24 -0.2 -0.61 -0.47 -0.75 -0.54 -0.65 -0.43 -0.21 -0.13 -0.63 -0.37 -0.02 -0.01zm0.02 0.01c10.09,5.54 13.78,18.2 8.24,28.29 -5.54,10.09 -18.2,13.78 -28.29,8.24l20.05 -36.53zm73.01 -46.48l36.56 19.99 -0.01 0.01 -0.13 0.24 -0.84 1.37 0.51 -0.81 -0.02 0.03 -0.55 0.87 -0.56 0.8 -0.44 0.58 0.93 -1.29 -0.56 0.8 -1 1.27 -0.54 0.6 -0.02 0.02 0.49 -0.54 -0.54 0.6 -0.02 0.02 -0.6 0.63 -0.63 0.6 -0.02 0.02 -0.6 0.54 0.54 -0.49 -0.02 0.02 -0.6 0.54 -1.27 1 -0.8 0.56 1.29 -0.93 -0.58 0.44 -0.8 0.56 -0.87 0.55 -0.03 0.02 0.81 -0.51 -1.37 0.84 -0.24 0.13 -20.02 -36.54 -0.17 0.1 -1.31 0.8 0.87 -0.55 0.03 -0.02 -0.81 0.51 -0.73 0.52 -0.52 0.39 1.34 -0.97 -0.73 0.52 -1.21 0.96 -0.54 0.49 0.02 -0.02 0.6 -0.54 -0.54 0.49 0.02 -0.02 -0.57 0.55 -0.55 0.57 0.02 -0.02 -0.49 0.54 0.54 -0.6 0.02 -0.02 -0.49 0.54 -0.96 1.21 -0.52 0.73 0.97 -1.34 -0.39 0.52 -0.52 0.73 -0.51 0.81 0.02 -0.03 0.55 -0.87 -0.8 1.31 -0.1 0.17 -0.01 0.01zm88.76 -75.47l-52.2 95.46 -36.56 -19.99 52.2 -95.46 36.56 0 0 19.99zm-36.56 -19.99c5.52,-10.09 18.18,-13.8 28.28,-8.28 10.09,5.52 13.8,18.18 8.28,28.28l-36.56 -19.99zm52.18 115.44l-52.18 -95.45 36.56 -19.98 52.18 95.45 -36.47 20.15 -0.09 -0.16zm29.08 -27.47l-19.99 36.56 -0.07 -0.04 -0.18 -0.1 -0.03 -0.02 -0.86 -0.51 -0.03 -0.02 -0.54 -0.35 -0.79 -0.56 -0.03 -0.02 -0.58 -0.44 -0.03 -0.02 -0.03 -0.02 -0.72 -0.59 -0.03 -0.02 -0.03 -0.02 -0.03 -0.02 -1.2 -1.11 -0.02 -0.03 -0.03 -0.02 -1.11 -1.2 0.49 0.54 -0.02 -0.02 -0.54 -0.6 -0.59 -0.72 -0.44 -0.58 -0.02 -0.03 0.4 0.52 -0.44 -0.58 -0.89 -1.31 0.31 0.48 -0.02 -0.03 -0.84 -1.37 -0.02 -0.03 -0.06 -0.09 36.39 -20.31 -0.02 -0.03 0.02 0.03 -0.8 -1.31 0.02 0.03 0.35 0.55 -0.85 -1.25 -0.39 -0.52 0.44 0.58 0.02 0.03 -0.4 -0.52 -0.54 -0.66 -0.49 -0.54 0.02 0.02 0.54 0.6 -1.06 -1.15 0.03 0.02 0.02 0.03 -1.15 -1.06 0.03 0.02 0.03 0.02 0.03 0.02 -0.66 -0.54 0.03 0.02 0.03 0.02 -0.52 -0.4 0.03 0.02 -0.74 -0.52 -0.48 -0.31 0.03 0.02 -0.8 -0.47 0.03 0.02 -0.12 -0.06 -0.07 -0.04zm75.46 88.75l-95.45 -52.19 19.99 -36.56 95.45 52.19 0 36.56 -20 0zm19.99 -36.56c10.09,5.52 13.8,18.18 8.28,28.28 -5.52,10.09 -18.18,13.8 -28.28,8.28l19.99 -36.56zm-115.44 52.23l95.45 -52.22 20 36.55 -95.45 52.22 -20.01 -36.55 0.01 -0zm27.49 29.07l-36.56 -19.98 -0.04 0.06 0.47 -0.82 0.02 -0.03 -0.28 0.47 0.84 -1.37 0.02 -0.03 0.02 -0.03 0.4 -0.58 0.17 -0.24 0.02 -0.03 0.44 -0.58 0.59 -0.72 0.02 -0.03 0.02 -0.03 0.54 -0.6 0.02 -0.02 0.6 -0.63 0.03 -0.02 0.02 -0.03 1.2 -1.11 0.03 -0.02 -0.54 0.49 0.02 -0.02 1.84 -1.52 0.03 -0.02 -0.52 0.39 1.34 -0.97 0.03 -0.02 0.03 -0.02 0.03 -0.02 0.03 -0.02 1.37 -0.84 0.24 -0.13 20.02 36.54 0.17 -0.1 1.31 -0.8 -0.03 0.02 -0.03 0.02 -0.03 0.02 -0.03 0.02 1.29 -0.93 -0.58 0.44 -0.03 0.02 1.78 -1.47 -0.02 0.02 -0.6 0.54 -0.03 0.02 1.15 -1.06 -0.02 0.03 -0.03 0.02 0.55 -0.57 -0.02 0.02 0.49 -0.54 -0.02 0.03 -0.02 0.03 0.54 -0.66 0.4 -0.52 -0.02 0.03 0.13 -0.18 0.36 -0.53 -0.02 0.03 -0.02 0.03 0.8 -1.31 -0.31 0.54 -0.02 0.03 0.44 -0.76 -0.04 0.06zm-88.74 75.46l52.18 -95.45 36.56 19.98 -52.18 95.45 -36.56 0 0 -19.99zm36.56 19.98c-5.52,10.09 -18.18,13.8 -28.27,8.29 -10.09,-5.52 -13.8,-18.18 -8.29,-28.27l36.56 19.98zm-52.2 -115.45l52.2 95.46 -36.56 19.99 -52.2 -95.46 -0.04 -0.08 36.6 -19.91zm-29.08 27.48l20.01 -36.54 0 0 0.24 0.13 1.37 0.84 -0.81 -0.51 0.03 0.02 0.87 0.55 0.8 0.56 0.03 0.02 -0.73 -0.52 1.34 0.97 0.72 0.59 -0.66 -0.54 0.61 0.5 0.7 0.62 0.07 0.06 0.58 0.56 -0.58 -0.55 0.63 0.6 0.6 0.63 0.02 0.02 0.54 0.6 0.02 0.03 0.59 0.72 0.02 0.03 0.02 0.03 0.97 1.34 -0.52 -0.73 0.02 0.03 1.08 1.63 0.02 0.03 -0.18 -0.29 0.51 0.86 0.18 0.33 -36.65 19.83 0.15 0.27 0.47 0.8 -0.22 -0.35 -0.02 -0.03 1.04 1.57 -0.02 -0.03 -0.56 -0.8 0.93 1.29 -0.02 -0.03 -0.02 -0.03 0.54 0.66 -0.02 -0.03 0.49 0.54 -0.02 -0.02 0.55 0.57 0.57 0.55 -0.63 -0.6 0.53 0.51 0.02 0.02 0.65 0.57 0.56 0.46 -0.72 -0.59 0.66 0.54 1.29 0.93 -0.8 -0.56 -0.03 -0.02 0.73 0.52 0.81 0.51 -0.03 -0.02 -0.87 -0.55 1.31 0.8 0.17 0.1 0 0zm-75.37 -88.76l95.38 52.22 -20.01 36.54 -95.38 -52.22 0 -36.55 20.01 0zm-20.01 36.54c-10.09,-5.52 -13.79,-18.19 -8.27,-28.28 5.52,-10.09 18.19,-13.79 28.28,-8.27l-20.01 36.54zm115.37 -52.19l-95.36 52.19 -20.01 -36.55 95.36 -52.19 20.01 36.55 -0 0zm-20.01 -36.55c10.09,-5.52 22.76,-1.82 28.28,8.27 5.52,10.09 1.82,22.76 -8.27,28.28l-20.01 -36.55zm733.91 514.2l117.55 64.34 -20.01 36.55 -117.55 -64.34 -8.27 -8.27 28.28 -28.28zm-20.01 36.55c-10.09,-5.52 -13.8,-18.19 -8.27,-28.28 5.52,-10.09 18.19,-13.8 28.28,-8.27l-20.01 36.55zm-36.04 -145.78l64.32 117.5 -36.55 20.01 -64.32 -117.5 -0.03 -0.06 36.58 -19.95zm-20.03 29.79l0 -41.67 0 0 0.68 0.01 1.28 0.07 0.67 0.07 0.67 0.09 0.66 0.11 0.65 0.12 0.78 0.17 0.8 0.21 0.63 0.19 0.62 0.2 1.13 0.43 0.8 0.34 0.3 0.14 0.56 0.27 1.02 0.54 0.78 0.46 0.33 0.21 0.49 0.32 0.47 0.33 0.74 0.55 0.72 0.59 0.7 0.61 0.67 0.65 0.05 0.05 0.65 0.67 0.61 0.7 0.59 0.72 0.55 0.74 0.04 0.06 0.51 0.75 0.74 1.2 0.21 0.39 -36.61 19.89 0.15 0.27 0.67 1.09 0.43 0.64 -0.04 -0.06 0.47 0.63 0.5 0.61 0.53 0.6 0.55 0.58 -0.05 -0.05 0.58 0.55 0.6 0.53 0.61 0.5 0.63 0.47 0.36 0.25 0.38 0.25 0.22 0.14 0.66 0.39 0.9 0.48 0.44 0.22 0.18 0.08 0.67 0.28 1.01 0.38 0.5 0.17 0.51 0.15 0.67 0.18 0.64 0.14 0.51 0.1 0.52 0.08 0.53 0.07 0.54 0.06 1.15 0.07 0.55 0.01 0 0zm16.51 -9.79l-36.57 -19.98 0.04 -0.07 0.42 -0.72 0.3 -0.49 0.49 -0.74 0.24 -0.34 0.55 -0.74 0.59 -0.72 0.61 -0.7 0.35 -0.37 0.65 -0.65 0.37 -0.35 0.7 -0.62 0.72 -0.58 0.05 -0.04 1.15 -0.83 0.49 -0.32 0.78 -0.48 0.79 -0.44 0.06 -0.03 0.79 -0.4 1.08 -0.49 0.59 -0.24 0.81 -0.3 0.79 -0.26 0.07 -0.02 1.2 -0.33 0.78 -0.17 0.65 -0.13 1.26 -0.18 0.13 -0.02 0.66 -0.07 1.25 -0.07 0.67 -0.01 0 41.67 0.52 -0.01 1.12 -0.06 0.52 -0.05 0 0 1.12 -0.17 0.51 -0.09 0.64 -0.15 1.07 -0.29 -0.07 0.02 0.67 -0.22 0.69 -0.25 0.48 -0.19 0.96 -0.43 0.67 -0.34 -0.06 0.03 0.67 -0.38 0.67 -0.41 0.38 -0.25 1.04 -0.76 -0.05 0.04 0.61 -0.5 0.6 -0.52 0.27 -0.26 0.55 -0.55 0.26 -0.28 0.53 -0.6 0.5 -0.61 0.47 -0.63 0.16 -0.23 0.41 -0.62 0.23 -0.37 0.35 -0.6 0.04 -0.07zm-100.76 97.52l64.2 -117.49 36.57 19.98 -64.2 117.49 -8.28 8.28 -28.29 -28.26zm36.57 19.98c-5.52,10.09 -18.18,13.81 -28.27,8.3 -10.09,-5.52 -13.81,-18.18 -8.3,-28.27l36.57 19.98zm-145.76 36.09l117.47 -64.35 20.02 36.54 -117.47 64.35 -20.04 -36.53 0.02 -0.01zm29.79 20.03l-41.67 0 0 0 0.01 -0.66 0.07 -1.26 0.07 -0.72 0.09 -0.67 0.11 -0.66 0.15 -0.77 0.15 -0.65 0.17 -0.64 0.23 -0.8 0.2 -0.62 0.43 -1.13 0.34 -0.8 0.14 -0.3 0.27 -0.56 0.54 -1.02 0.46 -0.78 0.21 -0.33 0.32 -0.49 0.54 -0.76 0.33 -0.44 0.59 -0.72 0.61 -0.7 0.35 -0.37 0.66 -0.66 0.35 -0.33 0.7 -0.62 0.72 -0.58 0.35 -0.26 0.86 -0.61 0.76 -0.5 0.33 -0.2 0.74 -0.43 20.06 36.52 0.63 -0.36 0.21 -0.13 0.65 -0.43 0.75 -0.54 0.24 -0.18 0.61 -0.5 0.6 -0.52 0.26 -0.25 0.57 -0.56 0.26 -0.27 0.53 -0.6 0.5 -0.61 0.26 -0.34 0.46 -0.65 0.25 -0.38 0.14 -0.22 0.39 -0.66 0.48 -0.9 0.22 -0.44 0.08 -0.18 0.28 -0.67 0.38 -1.01 0.17 -0.5 0.19 -0.67 0.13 -0.5 0.11 -0.52 0.13 -0.63 0.08 -0.52 0.07 -0.53 0.06 -0.59 0.06 -1.11 0.01 -0.53 0 0zm-9.79 -16.51l-19.98 36.56 0.01 0.01 -0.8 -0.46 -0.06 -0.04 -0.76 -0.47 -1.14 -0.8 -0.72 -0.56 -0.35 -0.29 -0.7 -0.61 -0.37 -0.35 -0.35 -0.34 -0.64 -0.67 -0.62 -0.7 -0.34 -0.42 -0.28 -0.35 -0.83 -1.15 -0.32 -0.49 -0.48 -0.78 -0.44 -0.79 -0.03 -0.06 -0.4 -0.79 -0.49 -1.08 -0.24 -0.59 -0.3 -0.81 -0.26 -0.79 -0.02 -0.07 -0.33 -1.2 -0.17 -0.78 -0.13 -0.65 -0.18 -1.26 -0.02 -0.13 -0.07 -0.66 -0.07 -1.25 -0.01 -0.67 41.67 0 -0.01 -0.52 -0.06 -1.12 -0.05 -0.52 0 0 -0.17 -1.12 -0.09 -0.51 -0.15 -0.64 -0.29 -1.07 0.02 0.07 -0.22 -0.67 -0.25 -0.69 -0.19 -0.48 -0.43 -0.96 -0.34 -0.67 0.03 0.06 -0.38 -0.67 -0.41 -0.67 -0.25 -0.38 -0.76 -1.04 -0.2 -0.25 -0.26 -0.31 -0.52 -0.6 -0.56 -0.58 -0.25 -0.25 -0.28 -0.26 -0.6 -0.53 -0.24 -0.2 -0.61 -0.47 -1.03 -0.72 -0.64 -0.4 0.06 0.04 -0.68 -0.39 0.01 0.01zm97.49 100.75l-117.46 -64.19 19.98 -36.56 117.46 64.19 8.3 8.3 -28.28 28.26zm19.98 -36.56c10.09,5.52 13.81,18.17 8.29,28.27 -5.52,10.09 -18.17,13.81 -28.27,8.29l19.98 -36.56zm35.93 145.93l-64.2 -117.67 36.57 -19.95 64.2 117.67 0.02 0.03 -36.59 19.92zm20.05 -29.77l0 41.67 0 0 -0.66 -0.01 -1.26 -0.07 -0.72 -0.07 -0.07 -0.01 -1.26 -0.18 -0.77 -0.15 -0.65 -0.14 -0.64 -0.17 -0.8 -0.23 -1.17 -0.4 -0.06 -0.02 -0.8 -0.32 -0.58 -0.25 -0.56 -0.26 -1.52 -0.81 -0.51 -0.31 -0.06 -0.04 -0.76 -0.5 -0.76 -0.54 -0.44 -0.33 -0.72 -0.59 -0.35 -0.31 -0.39 -0.35 -0.97 -0.95 -0.35 -0.37 -0.61 -0.7 -0.59 -0.72 -0.33 -0.44 -0.54 -0.76 -0.5 -0.76 -0.2 -0.33 -0.48 -0.83 36.61 -19.89 -0.41 -0.71 -0.13 -0.21 -0.43 -0.65 -0.46 -0.65 -0.26 -0.34 -0.5 -0.61 -0.53 -0.6 -0.26 -0.27 -0.87 -0.85 -0.29 -0.26 -0.26 -0.22 -0.61 -0.5 -0.34 -0.26 -0.65 -0.46 -0.65 -0.43 0.06 0.04 -0.4 -0.24 -1.4 -0.75 -0.44 -0.21 -0.46 -0.2 -0.68 -0.27 0.06 0.02 -1.04 -0.35 -0.67 -0.2 -0.5 -0.13 -0.52 -0.12 -0.63 -0.12 -1.12 -0.17 0.07 0.01 -0.59 -0.06 -1.11 -0.06 -0.53 -0.01 0 0zm-16.53 9.78l36.56 19.99 -0.02 0.03 -0.44 0.75 -0.04 0.06 -0.47 0.76 -1.02 1.43 -0.04 0.05 -0.33 0.43 -0.87 1 -0.33 0.35 -0.35 0.37 -0.67 0.65 -0.7 0.61 -0.05 0.04 -0.72 0.59 -1.15 0.83 -0.49 0.32 -0.06 0.04 -0.78 0.48 -1.28 0.69 -0.56 0.27 -0.3 0.14 -0.8 0.34 -1.13 0.43 -0.62 0.2 -0.63 0.19 -0.8 0.21 -0.78 0.17 -0.65 0.12 -0.66 0.11 -0.67 0.09 -0.67 0.07 -1.3 0.07 -0.67 0.01 0 -41.67 -0.52 0.01 -1.17 0.07 -0.54 0.06 -0.53 0.07 -0.52 0.08 -0.51 0.1 -0.64 0.14 -0.67 0.18 -0.51 0.15 -0.5 0.17 -1.01 0.38 -0.67 0.28 -0.18 0.08 -0.44 0.22 -1.16 0.63 -0.67 0.41 0.06 -0.04 -0.38 0.25 -1.04 0.76 -0.61 0.5 0.05 -0.04 -0.6 0.53 -0.58 0.55 -0.26 0.27 -0.25 0.26 -0.77 0.89 -0.26 0.31 0.04 -0.05 -0.94 1.32 -0.4 0.64 0.04 -0.06 -0.37 0.63 -0.02 0.03zm100.89 -97.65l-64.33 117.65 -36.56 -19.99 64.33 -117.65 8.29 -8.29 28.27 28.28zm-36.56 -19.99c5.52,-10.09 18.18,-13.8 28.28,-8.28 10.09,5.52 13.8,18.18 8.28,28.28l-36.56 -19.99zm145.81 -35.92l-117.54 64.2 -19.98 -36.57 117.54 -64.2 0.01 -0 19.96 36.57zm-29.77 -20.05l41.67 0 0 0 -0.01 0.67 -0.07 1.25 -0.07 0.66 -0.02 0.13 -0.18 1.26 -0.13 0.65 -0.17 0.78 -0.33 1.2 -0.02 0.07 -0.26 0.79 -0.3 0.81 -0.24 0.59 -0.49 1.08 -0.4 0.79 -0.03 0.06 -0.44 0.79 -0.48 0.78 -0.32 0.49 -0.83 1.15 -0.28 0.35 -0.34 0.42 -0.62 0.7 -0.64 0.67 -0.35 0.34 -0.37 0.35 -0.7 0.61 -0.35 0.29 -0.72 0.56 -1.14 0.8 -0.76 0.47 -0.06 0.04 -0.8 0.46 -19.95 -36.57 -0.68 0.39 0.06 -0.04 -0.64 0.4 -1.03 0.72 -0.61 0.47 -0.24 0.2 -0.6 0.53 -0.28 0.26 -0.25 0.25 -0.56 0.58 -0.52 0.6 -0.26 0.31 -0.2 0.25 -0.76 1.04 -0.25 0.38 -0.41 0.67 -0.38 0.67 0.03 -0.06 -0.34 0.67 -0.43 0.96 -0.19 0.48 -0.25 0.69 -0.22 0.67 0.02 -0.07 -0.29 1.07 -0.15 0.64 -0.09 0.51 -0.17 1.12 0 0 -0.05 0.52 -0.06 1.12 -0.01 0.52 0 0zm9.78 16.52l20.01 -36.55 0.02 0.01 0.75 0.44 0.33 0.2 0.48 0.31 1.14 0.8 1.01 0.81 0.05 0.04 0.05 0.04 0.7 0.61 1.27 1.27 0.04 0.05 0.35 0.39 1.14 1.41 0.04 0.06 0.04 0.05 0.72 1.04 0.58 0.94 0.3 0.53 0.43 0.81 0.27 0.56 0.36 0.81 0.32 0.8 0.02 0.06 0.22 0.61 0.42 1.35 0.17 0.64 0.15 0.65 0.24 1.36 0.09 0.67 0.01 0.07 0.07 0.72 0.07 1.26 0.01 0.66 -41.67 0 0.01 0.53 0.06 1.11 0.06 0.59 -0.01 -0.07 0.07 0.53 0.22 1.22 0.11 0.52 0.13 0.5 0.38 1.23 0.17 0.48 -0.02 -0.06 0.27 0.68 0.31 0.7 0.22 0.44 0.36 0.69 0.24 0.42 0.51 0.82 0.65 0.93 -0.04 -0.05 -0.04 -0.06 1.06 1.31 0.26 0.3 -0.04 -0.05 1.18 1.18 0.6 0.53 -0.05 -0.04 -0.05 -0.04 0.91 0.72 1.02 0.72 0.37 0.24 0.21 0.13 0.63 0.37 0.02 0.01zm-0.02 -0.01c-10.09,-5.54 -13.78,-18.2 -8.24,-28.29 5.54,-10.09 18.2,-13.78 28.29,-8.24l-20.05 36.53zm-92.44 57.01l-36.56 -19.98 0.01 -0.02 0.13 -0.24 0.31 -0.54 0.02 -0.03 0.22 -0.35 0.35 -0.55 0.4 -0.58 -0.36 0.53 0.56 -0.8 0.44 -0.58 -0.55 0.73 0.59 -0.79 0.59 -0.72 0.02 -0.03 0.54 -0.6 0.02 -0.02 0.02 -0.03 0.6 -0.63 0.02 -0.02 0.03 -0.03 0.63 -0.6 1.29 -1.1 0.03 -0.02 -0.66 0.54 0.72 -0.59 0.79 -0.59 -0.18 0.13 0.03 -0.02 1.63 -1.08 0.03 -0.02 -0.81 0.51 1.37 -0.84 0.33 -0.18 19.83 36.65 0.27 -0.15 1.31 -0.8 -0.87 0.55 -0.03 0.02 1.57 -1.04 -0.03 0.02 -0.24 0.17 0.73 -0.55 0.66 -0.54 -0.72 0.59 -0.03 0.02 1.23 -1.05 0.58 -0.55 -0.03 0.03 -0.02 0.02 0.55 -0.58 -0.02 0.03 -0.02 0.02 0.49 -0.54 -0.02 0.03 0.54 -0.66 0.55 -0.73 -0.59 0.79 0.39 -0.52 0.52 -0.73 -0.4 0.58 0.36 -0.53 0.31 -0.48 0.18 -0.29 -0.02 0.03 0.28 -0.47 0.1 -0.17 0.01 -0.02zm-99.4 94.96l62.84 -114.94 36.56 19.98 -62.84 114.94 -36.57 -0.02 0.01 -19.97zm36.56 19.98c-5.52,10.09 -18.18,13.8 -28.27,8.29 -10.09,-5.52 -13.8,-18.18 -8.29,-28.27l36.56 19.98zm-62.7 -134.93l62.71 114.96 -36.57 19.95 -62.71 -114.96 36.56 -19.98 0.02 0.03zm-29.07 27.48l19.98 -36.57 -0.07 -0.04 0.33 0.18 0.86 0.51 -0.3 -0.18 0.03 0.02 0.87 0.55 0.03 0.02 0.8 0.56 0.58 0.44 0.03 0.02 0.03 0.02 0.03 0.02 0.72 0.59 0.6 0.54 0.02 0.02 0.03 0.02 1.2 1.2 -0.55 -0.57 0.03 0.02 0.6 0.63 0.62 0.7 0.5 0.61 -0.54 -0.66 0.59 0.72 0.59 0.79 -0.55 -0.73 0.44 0.58 0.56 0.8 0.55 0.87 0.02 0.03 -0.51 -0.81 0.84 1.37 0.13 0.24 -36.54 20.02 0.1 0.17 0.8 1.31 -0.55 -0.87 -0.02 -0.03 0.51 0.81 0.52 0.73 0.39 0.52 -0.59 -0.79 0.55 0.73 0.54 0.66 -0.59 -0.72 0.46 0.56 0.57 0.65 0.55 0.57 -0.03 -0.02 -0.6 -0.63 1.15 1.15 -0.03 -0.02 -0.02 -0.02 0.54 0.49 0.66 0.54 -0.03 -0.02 -0.03 -0.02 -0.03 -0.02 0.52 0.39 0.73 0.52 -0.03 -0.02 0.81 0.51 -0.03 -0.02 -0.36 -0.22 0.8 0.47 0.27 0.15 -0.07 -0.04zm-94.8 -99.27l114.78 62.7 -19.98 36.57 -114.78 -62.7 -0.02 -36.56 20 -0.01zm-19.98 36.57c-10.09,-5.52 -13.81,-18.18 -8.3,-28.27 5.52,-10.09 18.18,-13.81 28.27,-8.3l-19.98 36.57zm134.78 -62.87l-114.78 62.86 -20.02 -36.54 114.78 -62.86 20.09 36.5 -0.07 0.04zm-27.5 -29.04l36.57 19.98 -0 0 -0.14 0.25 -0.51 0.86 -0.35 0.55 -0.02 0.03 -0.02 0.03 -0.02 0.03 -0.02 0.03 -0.97 1.34 -0.02 0.03 -0.02 0.03 -1.1 1.29 -0.02 0.02 -0.02 0.03 -0.02 0.02 -0.02 0.03 -1.2 1.2 -0.03 0.02 -0.02 0.02 -0.03 0.02 -0.02 0.02 -1.29 1.1 -0.03 0.02 -0.03 0.02 -1.34 0.97 0.73 -0.52 0.52 -0.39 -2.18 1.5 -0.54 0.31 1.31 -0.8 -0.03 0.02 -1.37 0.84 -0.16 0.09 -20.17 -36.46 -0.1 0.06 -1.31 0.8 0.03 -0.02 1.37 -0.84 -0.47 0.28 -2.13 1.46 0.58 -0.44 0.8 -0.56 -1.29 0.93 0.03 -0.02 0.03 -0.02 -1.23 1.05 0.02 -0.02 0.03 -0.02 0.02 -0.02 0.03 -0.02 -1.15 1.15 0.02 -0.03 0.02 -0.02 0.02 -0.03 0.02 -0.02 -1.05 1.23 0.02 -0.03 0.02 -0.03 -0.93 1.29 0.02 -0.03 0.02 -0.03 0.02 -0.03 0.02 -0.03 -0.31 0.48 -0.47 0.8 -0.11 0.19 -0 0zm99.28 -94.81l-62.71 114.79 -36.57 -19.98 62.71 -114.79 36.56 -0.02 0.01 19.99zm-36.57 -19.98c5.52,-10.09 18.18,-13.81 28.27,-8.3 10.09,5.52 13.81,18.18 8.3,28.27l-36.57 -19.98zm62.84 134.79l-62.83 -114.8 36.55 -20.01 62.83 114.8 -36.54 20.03 -0.01 -0.02zm29.06 -27.5l-20.01 36.55 -0.09 -0.06 -0.65 -0.37 -0.87 -0.55 0.81 0.51 -0.03 -0.02 -0.87 -0.55 -0.58 -0.4 -0.79 -0.59 -0.03 -0.02 -0.03 -0.02 -0.03 -0.02 -0.03 -0.02 -0.72 -0.59 -0.6 -0.54 -0.63 -0.6 0.58 0.55 -0.03 -0.02 -1.2 -1.2 -0.02 -0.03 -0.02 -0.02 -0.62 -0.7 -0.02 -0.02 0.06 0.07 -0.59 -0.72 -0.59 -0.79 -0.02 -0.03 -0.4 -0.58 -0.02 -0.03 0.36 0.53 -0.93 -1.42 -0.02 -0.03 -0.02 -0.03 -0.42 -0.72 36.53 -20.05 -0.39 -0.66 0.02 0.03 0.02 0.03 -0.89 -1.37 0.4 0.58 0.02 0.03 -0.36 -0.53 0.02 0.03 -0.55 -0.73 -0.54 -0.66 0.11 0.13 0.02 0.02 -0.57 -0.65 0.02 0.02 0.02 0.03 -1.15 -1.15 0.03 0.02 0.63 0.6 -0.58 -0.55 -0.54 -0.49 -0.66 -0.54 0.03 0.02 0.03 0.02 0.03 0.02 0.03 0.02 -0.73 -0.55 -0.53 -0.36 -0.81 -0.51 0.03 0.02 0.87 0.55 -0.81 -0.51 -0.59 -0.34 -0.09 -0.06zm94.83 99.41l-114.84 -62.86 20.01 -36.55 114.84 62.86 -0.02 36.56 -19.99 -0.01zm20.01 -36.55c10.09,5.52 13.8,18.19 8.27,28.28 -5.52,10.09 -18.19,13.8 -28.28,8.27l20.01 -36.55zm-134.83 62.7l114.84 -62.7 19.97 36.57 -114.84 62.7 -0.07 0.04 -19.9 -36.61zm19.97 36.57c-10.09,5.51 -22.76,1.8 -28.27,-8.3 -5.51,-10.09 -1.8,-22.76 8.3,-28.27l19.97 36.57z"></path></g></svg>
